<svg xmlns="http://www.w3.org/2000/svg" width="65" height="65.685" viewBox="0 0 65 65.685">
  <g id="Icon" transform="translate(0 -0.03)">
    <path id="Path_1289" data-name="Path 1289" d="M205.5,188.937h6.223v6.223H205.5Zm8.928,0h6.223v6.223h-6.223Zm-8.845,8.638h6.227V203.8h-6.227Zm0,8.642h6.227v6.227h-6.227Zm8.718-8.642h6.227V203.8H214.3Zm0,8.642h6.227v6.227H214.3Z" transform="translate(-177.04 -163.125)" fill="#0bf"/>
    <path id="Path_1290" data-name="Path 1290" d="M21.648,40.8V24.979l14.27-7.913,14.27,7.913V40.662l4.8,2.661V22.318L35.917,11.744,16.849,22.318V43.464ZM7.2,49.239V22.361L.5,26.067V20.791l6.7-3.728V5.408L12,1.144V14.387L35.85,1.144l28.65,15.9v32.19l-28.65,15.9ZM12,46.576,35.85,59.819,59.7,46.577V19.712L35.85,6.469,12,19.712V46.576Z" fill="#0bf" stroke="rgba(0,0,0,0)" stroke-miterlimit="10" stroke-width="1"/>
  </g>
</svg>
