<?xml version="1.0" standalone="no"?>
<!DOCTYPE svg PUBLIC "-//W3C//DTD SVG 1.1//EN" "http://www.w3.org/Graphics/SVG/1.1/DTD/svg11.dtd">
<svg xmlns="http://www.w3.org/2000/svg">
<metadata>Copyright (C) 2022 by original authors @ fontello.com</metadata>
<defs>
<font id="fontello" horiz-adv-x="1000" >
<font-face font-family="fontello" font-weight="400" font-stretch="normal" units-per-em="1000" ascent="850" descent="-150" />
<missing-glyph horiz-adv-x="1000" />
<glyph glyph-name="bedroom" unicode="&#xe800;" d="M998 176c2 4 3 9 1 14l-82 267v247c0 58-47 104-104 104h-625c-58 0-105-46-105-104v-247l-82-267c-2-5-1-10 1-14-1-4-2-9-2-13v-167-84c0-11 9-20 21-20h83c12 0 21 9 21 20v63h750v-63c0-11 9-20 21-20h83c12 0 21 9 21 20v84 167c0 4-1 9-2 13z m-873 528c0 35 28 63 63 63h625c34 0 62-28 62-63v-229h-57l-19 78c-7 28-32 47-61 47h-134c-34 0-62-28-62-62v-63h-84v63c0 34-28 62-62 62h-134c-29 0-54-19-61-47l-19-78h-57v229z m651-263c-4-5-10-8-17-8h-155c-11 0-21 10-21 21v84c0 11 10 20 21 20h134c10 0 18-6 21-15l20-84c2-6 1-12-3-18z m-359 97v-84c0 0 0 0 0 0 0 0 0 0 0 0 0-11-10-21-21-21h-155c-7 0-12 3-16 8-4 6-6 12-4 18l21 84c2 9 10 15 20 15h134c11 0 21-9 21-20z m-297-105h62c3-6 5-12 10-17 12-16 30-24 49-24h155c27 0 50 17 59 41h91c8-24 31-41 58-41h155c20 0 37 8 49 24 5 5 8 11 10 17h63l64-209c-3 1-5 1-7 1h-875c-3 0-5 0-8-1l65 209z m-37-500h-41v42h41v-42z m875 0h-41v42h41v-42z m0 84h-916v146c0 11 9 20 21 20h875c11 0 20-9 20-20v-146z" horiz-adv-x="1000" />

<glyph glyph-name="bathroom" unicode="&#xe801;" d="M950 317h-17v350c0 83-66 150-150 150-73 0-126-55-132-135-39-7-68-41-68-82 0-10 7-17 17-17h133c10 0 17 7 17 17 0 41-28 74-66 82 5 53 37 101 99 101 65 0 117-51 117-116v-350h-502c-7 38-40 66-81 66-17 20-40 34-67 34-32 0-60-19-73-45-14 6-29 11-44 11-41 0-74-28-81-66h-2c-28 0-50-22-50-50 0-29 22-50 50-50h20l45-179c13-51 60-88 113-88h14l-22-43c-5-9-2-19 7-22 1-2 5-2 6-2 7 0 12 4 15 9l30 58h462l28-57c4-6 9-10 15-10 4 0 5 0 7 4 7 3 10 13 7 21l-21 42c51 2 96 38 109 87l45 180h20c28 0 50 21 50 50 0 28-22 50-50 50z m-235 300h-95c7 20 27 33 48 33s40-13 47-33z m-582-267c15 0 29-7 40-18 4-5 10-7 17-5s10 6 12 13c5 25 25 43 50 43 18 0 35-8 43-25 3-6 12-10 18-8 2 0 4 0 5 0 22 0 40-13 47-33h-278c6 20 25 33 46 33z m722-303c-10-37-43-64-82-64h-543c-38 0-72 27-82 64l-43 170h790l-40-170z m95 203h-33-834-33c-10 0-17 7-17 17s7 16 17 16h17 316 567c10 0 17-6 17-16s-7-17-17-17z m-350 258c10 0 17 7 17 17v8c0 10-7 17-17 17s-17-7-17-17v-8c0-10 7-17 17-17z m0-76c10 0 17 8 17 16v19c0 10-7 16-17 16s-17-6-17-16v-19c0-10 7-16 17-16z m0-65c10 0 17 6 17 16v9c0 10-7 16-17 16s-17-6-17-16v-9c0-10 7-16 17-16z m67 141c10 0 16 7 16 17v8c0 10-6 17-16 17-10 0-17-7-17-17v-8c0-10 7-17 17-17z m-17-60c0-10 7-16 17-16 10 0 16 8 16 16v19c0 10-6 16-16 16-10 0-17-6-17-16v-19z m0-65c0-10 7-16 17-16 10 0 16 6 16 16v9c0 10-6 16-16 16-10 0-17-6-17-16v-9z m83 125c10 0 17 7 17 17v8c0 10-7 17-17 17s-16-7-16-17v-8c0-10 6-17 16-17z m-16-60c0-10 6-16 16-16s17 8 17 16v19c0 10-7 16-17 16s-16-6-16-16v-19z m0-65c0-10 6-16 16-16s17 6 17 16v9c0 10-7 16-17 16s-16-6-16-16v-9z" horiz-adv-x="1000" />

<glyph glyph-name="car" unicode="&#xe802;" d="M962 449l-22 23-76 207c-14 35-47 58-84 58h-546c-38 0-71-23-84-58l-75-204-32-29c-27-23-43-57-43-93v-301c0-49 40-89 89-89h57c49 0 89 40 89 89v44h530v-44c0-49 40-89 89-89h57c49 0 89 40 89 89v309c0 33-14 65-38 88z m-772 215c7 18 24 30 44 30h546c19 0 37-12 44-30l66-179h-50c-11 80-86 135-166 123-64-9-114-59-124-123h-426l66 179z m607-179h-203c11 56 67 92 123 80 40-9 71-40 80-80z m-605-433c0-25-21-46-46-46h-57c-25 0-46 21-46 46v56c13-8 29-12 46-12h103v-44z m765 0c0-25-21-46-46-46h-57c-25 0-46 21-46 46v44h103c17 0 33 4 46 12v-56z m-46 87h-822c-25-1-46 20-46 45v169c0 23 10 46 28 61 0 0 1 0 1 1l29 27h809l21-22c0-1 1-1 1-1 16-15 25-36 25-58v-177h0c0-25-21-46-46-45z m-629 217h-160c-12 0-22-9-22-21v-111c0-12 10-21 22-21h160c12 0 21 9 21 21v111c0 12-9 21-21 21z m-21-111h-118v69h118v-69z m617 111h-160c-12 0-21-9-21-21v-111c0-12 9-21 21-21h160c12 0 22 9 22 21v111c0 12-10 21-22 21z m-21-111h-118v69h118v-69z m-254 22h-206c-12 0-22-10-22-22s10-21 22-21h206c12 0 22 10 22 21s-10 22-22 22z m0 66h-206c-12 0-22-10-22-21s10-22 22-22h206c12 0 22 10 22 22s-10 21-22 21z" horiz-adv-x="1000" />

<glyph glyph-name="garage" unicode="&#xe803;" d="M983 850h-966c-9 0-17-7-17-17v-100c0-9 8-16 17-16v-834c0-9 7-16 16-16 10 0 17 7 17 16v700h900v-700c0-9 8-16 17-16 9 0 16 7 16 16v834c10 0 17 7 17 16v100c0 10-7 17-17 17z m-950-33h934v-67h-934z m17-200v33h900v-33z m900 66h-900v34h900z m0 0m-683-433c-28 0-50-22-50-50 0-28 22-50 50-50 27 0 50 22 50 50 0 28-23 50-50 50z m0-67c-9 0-17 8-17 17 0 9 8 17 17 17 9 0 16-8 16-17 0-9-7-17-16-17z m0 0m466 67c-27 0-50-22-50-50 0-28 23-50 50-50 28 0 50 22 50 50 0 28-22 50-50 50z m0-67c-9 0-16 8-16 17 0 9 7 17 16 17 10 0 17-8 17-17 0-9-7-17-17-17z m0 0m-100 50h-266c-9 0-17-7-17-16 0-9 8-17 17-17h266c10 0 17 8 17 17 0 9-7 16-17 16z m0 0m0-50h-266c-9 0-17-7-17-16 0-9 8-17 17-17h266c10 0 17 8 17 17 0 9-7 16-17 16z m0 0m284 234h-50c-9 0-17-8-17-17v-33h-33v66c0 56-45 100-100 100h-434c-55 0-100-44-100-100v-66h-33v33c0 9-7 17-17 17h-50c-9 0-16-8-16-17v-100c0-9 7-17 16-17h50c10 0 17 8 17 17v33h33v-33c-27 0-50-22-50-50v-117h-16c-9 0-17-7-17-16v-100c0-9 8-17 17-17h50v-100c0-18 15-33 33-33h100c18 0 33 15 33 33v100h334v-100c0-18 15-33 33-33h100c18 0 33 15 33 33v100h50c10 0 17 8 17 17v100c0 9-7 16-17 16h-16v117c0 28-23 50-50 50v33h33v-33c0-9 8-17 17-17h50c9 0 16 8 16 17v100c0 9-7 17-16 17z m-800-100h-17v66h17z m183-417h-100v100h100z m500 0h-100v100h100z m67 133h-734v67h734z m-34 217v-117h-666v117c0 9 7 17 16 17h634c9 0 16-8 16-17z m-547 50c9 26 38 40 64 31 14-5 25-17 30-31z m129 0c-9 45-53 74-98 65-33-7-59-32-65-65h-35v133c0 37 30 67 66 67h434c37 0 66-30 66-67v-133z m485 17h-17v66h17z m0 0m-367 150h-66c-9 0-17-8-17-17 0-9 8-17 17-17h66c10 0 17 8 17 17 0 9-7 17-17 17z m0 0" horiz-adv-x="1000" />

<glyph glyph-name="swimming" unicode="&#xe804;" d="M701 757c0 51-41 92-91 92-51 0-92-41-92-92v-58h33v58c0 33 26 59 59 59 32 0 58-26 58-59v-108h-334v108c0 51-41 92-92 92-51 0-92-41-92-92v-58h34v58c0 33 26 59 58 59 32 0 59-26 59-59v-409h-301v-33h301v-69c-20-3-39-8-57-16-24-11-50-16-77-15-27-1-53 4-77 15-28 13-59 19-90 18v-33c27 0 53-5 77-16 29-13 59-19 90-18 31-1 62 5 90 18 24 11 50 16 77 16 27 0 53-5 77-16 28-13 59-19 90-18 31-1 61 5 90 18 24 11 50 16 77 16 26 0 53-5 77-16 28-13 59-19 90-18 31-1 62 5 90 18 24 11 50 16 77 16v33c-31 1-62-5-90-18-24-11-50-16-77-15-27-1-53 4-77 15-18 8-37 13-57 16v69h301v33h-301z m-33-509h0c-31 1-62-5-90-18-24-11-50-16-77-15-27-1-53 4-77 15-29 13-59 19-90 18v67h334z m0 100h-334v67h334z m0 100h-334v67h334z m0 100h-334v67h334z m0 0m167-434c-27 0-53 5-77 16-29 12-59 18-90 18-31 0-62-6-90-18-24-11-50-16-77-16-27 0-53 5-77 16-29 12-59 18-90 18-31 0-62-6-90-18-24-11-50-16-77-16-27 0-53 5-77 16-28 12-59 18-90 18v-34c27 1 53-4 77-15 29-13 59-19 90-18 31-1 62 5 90 18 24 11 50 16 77 15 27 1 53-4 77-15 28-13 59-19 90-18 31-1 61 5 90 18 24 11 50 16 77 15 26 1 53-4 77-15 28-13 59-19 90-18 31-1 62 5 90 18 24 11 50 16 77 15v34c-31 0-62-6-90-18-24-11-50-16-77-16z m0 0" horiz-adv-x="1000" />

<glyph glyph-name="focus" unicode="&#xe805;" d="M347 850h-308c-21 0-39-18-39-39v-307c0-21 18-39 39-39 22 0 40 18 40 39v268h268c22 0 39 17 39 39 0 21-17 39-39 39z m-1-920h-267v267c0 22-18 39-40 39-21 0-39-17-39-39v-306c0-22 18-40 39-40h307c21 0 39 18 39 40s-18 39-39 39z m613 306c-21 0-39-17-39-39v-269h-267c-21 0-39-17-39-39s18-39 39-39h306c22 0 40 18 40 39v308c0 22-18 39-40 39z m2 614h-308c-21 0-39-18-39-39 0-22 18-39 39-39h269v-269c0-21 17-39 39-39 21 0 39 18 39 39v308c0 21-18 39-39 39z" horiz-adv-x="1000" />

<glyph glyph-name="area-o" unicode="&#xe806;" d="M975 647c14 0 25 11 25 24v154c0 14-11 25-25 25h-154c-13 0-24-11-24-25v-53h-594v53c0 14-11 25-24 25h-154c-14 0-25-11-25-25v-154c0-13 11-24 25-24h53v-594h-53c-14 0-25-11-25-24v-154c0-14 11-25 25-25h154c13 0 24 11 24 25v53h594v-53c0-14 11-25 24-25h154c14 0 25 11 25 25v154c0 13-11 24-25 24h-53v594h53z m-926 49v105h105v-105h-105z m105-797h-105v105h105v-105z m643 130v-52h-594v52c0 13-11 24-24 24h-51v594h51c13 0 24 11 24 24v52h594v-52c0-13 11-24 24-24h52v-594h-52c-13 0-24-11-24-24z m154-25v-105h-105v105h105z m-105 692v105h105v-105h-105z" horiz-adv-x="1000" />

<glyph glyph-name="area" unicode="&#xe807;" d="M150 850h-133c-9 0-17-7-17-17v-133c0-9 8-17 17-17h133c9 0 17 8 17 17v133c0 10-8 17-17 17z m-17-133h-100v100h100v-100z m17-700h-133c-9 0-17-8-17-17v-133c0-10 8-17 17-17h133c9 0 17 7 17 17v133c0 9-8 17-17 17z m-17-134h-100v100h100v-100z m850 967h-133c-9 0-17-7-17-17v-133c0-9 8-17 17-17h133c10 0 17 8 17 17v133c0 10-7 17-17 17z m-16-133h-100v100h100v-100z m16-700h-133c-9 0-17-8-17-17v-133c0-10 8-17 17-17h133c10 0 17 7 17 17v133c0 9-7 17-17 17z m-16-134h-100v100h100v-100z m-717 67h-33c-9 0-17-7-17-17s8-16 17-16h33c9 0 17 7 17 16s-8 17-17 17z m-83 833h-17c-9 0-17-7-17-16v-17c0-9 8-17 17-17s17 8 17 17c9 0 16 7 16 17s-7 16-16 16z m116 0h-50c-9 0-16-7-16-16s7-17 16-17h50c10 0 17 8 17 17s-7 16-17 16z m184-833h-34c-9 0-16-7-16-17s7-16 16-16h34c9 0 16 7 16 16s-7 17-16 17z m-350 67h-17c0 9-7 16-17 16-9 0-16-7-16-16v-17c0-9 7-17 16-17h34c9 0 16 8 16 17s-7 17-16 17z m250-67h-50c-9 0-17-7-17-17s8-16 17-16h50c9 0 16 7 16 16s-7 17-16 17z m-284 317c10 0 17 7 17 16v50c0 10-7 17-17 17-9 0-16-7-16-17v-50c0-9 7-16 16-16z m0 116c10 0 17 8 17 17v33c0 10-7 17-17 17-9 0-16-7-16-17v-33c0-9 7-17 16-17z m0 100c10 0 17 8 17 17v33c0 10-7 17-17 17-9 0-16-7-16-17v-33c0-9 7-17 16-17z m0 100c10 0 17 8 17 17v50c0 9-7 17-17 17-9 0-16-8-16-17v-50c0-9 7-17 16-17z m0-416c10 0 17 7 17 16v34c0 9-7 16-17 16-9 0-16-7-16-16v-34c0-9 7-16 16-16z m400 616h-33c-9 0-17-7-17-16s8-17 17-17h33c10 0 17 7 17 17s-7 16-17 16z m-400-716c10 0 17 7 17 16v34c0 9-7 16-17 16-9 0-16-7-16-16v-34c0-9 7-16 16-16z m300 716h-33c-9 0-17-7-17-16s8-17 17-17h33c10 0 17 7 17 17s-7 16-17 16z m534-433c-9 0-17-7-17-17v-50c0-9 8-16 17-16s16 7 16 16v50c0 10-7 17-16 17z m0-217c-9 0-17-7-17-16v-34c0-9 8-16 17-16s16 7 16 16v34c0 9-7 16-16 16z m0 100c-9 0-17-7-17-16v-34c0-9 8-16 17-16s16 7 16 16v34c0 9-7 16-16 16z m0 217c-9 0-17-7-17-17v-33c0-9 8-17 17-17s16 8 16 17v33c0 10-7 17-16 17z m0 217c-9 0-17-8-17-17v-50c0-9 8-17 17-17s16 8 16 17v50c0 9-7 17-16 17z m0-117c-9 0-17-7-17-17v-33c0-9 8-17 17-17s16 8 16 17v33c0 10-7 17-16 17z m-134-600h-33c-9 0-17-7-17-17s8-16 17-16h33c10 0 17 7 17 16s-7 17-17 17z m-100 0h-50c-9 0-16-7-16-17s7-16 16-16h50c10 0 17 7 17 16s-7 17-17 17z m-83 833h-50c-9 0-17-7-17-16s8-17 17-17h50c9 0 17 7 17 17s-8 16-17 16z m100 0h-33c-9 0-17-7-17-16s8-17 17-17h33c9 0 17 8 17 17s-8 16-17 16z m-133-833h-34c-9 0-16-7-16-17s7-16 16-16h34c9 0 16 7 16 16s-7 17-16 17z m233 833h-33c-9 0-17-7-17-16s8-17 17-17h33c9 0 17 8 17 17s-8 16-17 16z m117-750c-9 0-17-7-17-16h-17c-9 0-16-8-16-17s7-17 16-17h34c9 0 16 8 16 17v17c0 9-7 16-16 16z" horiz-adv-x="1000" />

<glyph glyph-name="image" unicode="&#xe808;" d="M983 747h-966c-9 0-17-8-17-18v-758c0-10 8-18 17-18h966c9 0 17 8 17 18v758c0 10-8 18-17 18z m-17-759h-931v724h931v-724z m-690 377c53 0 96 43 96 96 0 53-43 96-96 96s-96-43-96-96c0-53 43-96 96-96z m0 157c34 0 61-27 61-61s-27-62-61-62-62 28-62 62 28 61 62 61z m-155-465c4 0 8 1 11 4l281 248 178-178c7-6 18-6 24 0s7 18 0 25l-83 83 159 173 194-178c7-7 18-6 24 1 7 7 6 18-1 24l-207 190c-3 3-8 5-12 4-5 0-9-2-12-5l-169-185-82 82c-6 6-16 6-23 0l-294-258c-7-6-8-17-1-24 3-4 8-6 13-6z" horiz-adv-x="1000" />

<glyph glyph-name="pin" unicode="&#xe809;" d="M500 850c-209 0-379-170-379-379 0-203 350-598 365-615 7-8 19-8 27-1 1 0 1 1 2 1 14 17 364 412 364 615 0 209-170 379-379 379z m0-951c-67 78-340 406-340 572 0 188 152 340 340 340s340-152 340-340c0-166-273-494-340-572z m7 761c-113 0-205-92-205-206 0-113 92-205 205-205 114 0 205 92 205 206 0 113-92 205-205 205z m0-372c-92 0-166 75-166 166s74 167 166 167 166-75 166-167c0-91-74-166-166-166z" horiz-adv-x="1000" />

<glyph glyph-name="flash-outline" unicode="&#xe80a;" d="M495 767z m0 0l-391-369 261-151-130-313 390 370-260 150z m0 105q43 0 73-31t31-74q0-22-10-44l-93-224 182-105q43-25 50-77t-32-89l-390-370q-31-29-72-29-56 0-86 47t-9 98l95 228-181 105q-44 25-52 76t32 90l390 370q31 29 72 29z" horiz-adv-x="729" />

<glyph glyph-name="location" unicode="&#xe80b;" d="M500 850c-221 0-401-180-401-401 0-25 2-50 7-75 0-2 1-6 3-13 6-28 15-54 27-80 43-101 138-257 346-425 5-4 12-6 18-6s13 2 18 6c208 168 303 324 346 425 12 26 21 52 27 80 2 7 3 11 3 13 5 25 7 50 7 75 0 221-180 401-401 401z m338-466c0-1 0-1 0-1-1-2-1-5-2-9 0-1 0-1 0-1-6-23-13-46-24-68 0 0 0-1 0-1-39-93-125-235-312-389-187 154-273 296-312 389-1 0-1 1-1 1-10 22-18 45-23 68 0 0 0 0 0 1-1 4-2 7-2 9 0 0 0 0 0 1-4 22-6 43-6 65 0 190 154 345 344 345s344-155 344-345c0-22-2-44-6-65z m-338 315c-140 0-255-114-255-254s115-255 255-255 254 115 254 255-114 254-254 254z m0-452c-109 0-198 89-198 198s89 198 198 198 198-89 198-198-89-198-198-198z" horiz-adv-x="1000" />

<glyph glyph-name="heart" unicode="&#xe80c;" d="M919 708c-52 52-121 81-195 81s-144-29-196-81l-28-28-27 28c-53 53-123 82-197 82-73 0-143-29-195-81-52-53-81-122-81-196 0-74 29-144 81-196l399-398c5-6 13-9 20-9 7 0 14 3 20 9l399 397c52 53 81 122 81 196 0 74-28 144-81 196z m-40-351l-379-378-378 378c-42 42-65 97-65 156s23 114 65 155c41 41 96 64 154 64 59 0 115-23 156-64l48-48c11-11 29-11 41 0l47 47c42 42 97 65 155 65 59 0 114-23 156-64 41-42 64-97 64-156 0-59-23-114-64-155z" horiz-adv-x="1000" />

<glyph glyph-name="like" unicode="&#xe80d;" d="M998 538c-14 160-128 277-270 277-95 0-182-51-231-133-48 83-131 133-225 133-142 0-256-117-270-277-1-7-6-45 8-106 21-87 69-167 139-231l348-316 354 316c70 64 118 143 139 231 14 61 10 99 8 106z m-46-97c-18-80-62-153-126-211l-329-293-322 293c-65 58-108 131-127 211-14 58-8 90-8 91l0 2c12 140 110 242 232 242 90 0 170-55 207-144l18-42 18 42c37 88 121 144 213 144 122 0 220-102 232-244 0-1 6-33-8-91z" horiz-adv-x="1000" />

<glyph glyph-name="heart-fill" unicode="&#xe80e;" d="M1000 513c0 149-121 270-270 270-97 0-182-52-230-129-47 77-133 129-230 129-149 0-270-121-270-270 0-81 36-154 93-203l382-383c7-7 16-10 25-10 9 0 18 3 25 10l382 383c57 49 93 122 93 203z" horiz-adv-x="1000" />

<glyph glyph-name="like-fill" unicode="&#xe80f;" d="M998 538c-14 160-128 277-270 277-95 0-182-51-231-133-48 83-131 133-225 133-142 0-256-117-270-277-1-7-6-45 8-106 21-87 69-167 139-231l348-316 354 316c70 64 118 143 139 231 14 61 10 99 8 106z" horiz-adv-x="1000" />

<glyph glyph-name="compare" unicode="&#xe810;" d="M728 372l44-44 219 219c12 12 12 32 0 44l-219 219-44-45 165-165h-893v-63h893l-165-165z m272-210h-893l165 166-44 44-219-219c-12-12-12-32 0-44l219-219 44 44-165 166h893v62z" horiz-adv-x="1000" />

<glyph glyph-name="upload" unicode="&#xe811;" d="M971 362c-16 0-28-13-28-29v-261c0-71-58-128-129-128h-628c-71 0-129 58-129 128v265c0 16-12 29-28 29s-29-13-29-29v-265c0-102 83-185 186-185h628c103 0 186 83 186 185v261c0 16-13 29-29 29z m-633 220l133 134v-582c0-16 13-28 29-28s29 12 29 28v582l133-134c5-5 13-8 20-8 8 0 15 3 20 8 12 12 12 30 0 41l-182 182c-5 5-13 8-20 8-8 0-15-3-20-8l-182-182c-11-11-11-29 0-41 11-11 29-11 40 0z" horiz-adv-x="1000" />

<glyph glyph-name="download" unicode="&#xe812;" d="M971 362c-16 0-28-13-28-29v-261c0-71-58-128-129-128h-628c-71 0-129 58-129 128v265c0 16-12 29-28 29s-29-13-29-29v-265c0-102 83-185 186-185h628c103 0 186 83 186 185v261c0 16-13 29-29 29z m-491-248c5-5 13-8 20-8s15 2 20 8l182 182c12 11 12 30 0 41-11 11-29 11-40 0l-133-133v581c0 16-13 28-29 28s-29-12-29-28v-581l-133 133c-11 11-29 11-40 0-12-11-12-30 0-41l182-182z" horiz-adv-x="1000" />

<glyph glyph-name="play" unicode="&#xe813;" d="M759 364l-366 250c-5 3-12 4-17 1-6-3-9-9-9-15v-500c0-6 3-12 9-15 2-1 5-2 7-2 4 0 7 1 10 3l366 250c5 3 8 9 8 14s-3 11-8 14z m-359-232v436l320-218-320-218z m100 718c-276 0-500-224-500-500s224-500 500-500 500 224 500 500-224 500-500 500z m0-967c-257 0-467 210-467 467s210 467 467 467 467-210 467-467-210-467-467-467z" horiz-adv-x="1000" />

<glyph glyph-name="play-o" unicode="&#xe814;" d="M500 850c-275 0-500-225-500-500 0-275 225-500 500-500 275 0 500 225 500 500 0 275-225 500-500 500z m0-941c-243 0-441 198-441 441s198 441 441 441 441-198 441-441-198-441-441-441z m0 0m-146 152l433 289-433 289z m58 469l270-180-270-180z m0 0" horiz-adv-x="1000" />

<glyph glyph-name="image-o" unicode="&#xe815;" d="M908 849h-814c-52 0-94-42-94-94v-563c0-52 42-94 94-94h814c52 0 94 42 94 94v563c0 52-42 94-94 94z m-814-63h814c17 0 31-14 31-31v-425l-291 291c-12 12-32 12-44 0l-213-213-87 87c-12 13-32 13-44 0l-197-197v457c0 17 14 31 31 31z m814-626h-814c-17 0-31 14-31 32v18l219 219 134-134c6-6 14-10 22-10h126c17 0 31 14 31 32s-14 31-31 31h-113l-15 16 190 190 313-313v-49c0-18-14-32-31-32z m0 0m-564 407c52 0 94 42 94 94 0 52-42 94-94 94s-93-42-93-94c0-52 42-94 93-94z m0 126c18 0 32-15 32-32s-14-31-32-31-31 14-31 31 14 32 31 32z m0 0" horiz-adv-x="1000" />

<glyph glyph-name="camera" unicode="&#xe816;" d="M920 592h-142l-67 166h-422l-67-166h-22v83h-100v-83h-20c-44 0-80-36-80-80v-490c0-44 36-80 81-80h839c44 0 80 36 80 80v490c0 44-36 80-80 80z m-787 50h34v-50h-34v50z m834-620c0-26-21-47-47-47h-839c-26 0-48 21-48 47v490c0 25 21 46 47 46h20 100 45l66 167h378l66-167h165c26 0 47-21 47-46v-490z m-467 586c-165 0-300-134-300-300s135-300 300-300 300 135 300 300-135 300-300 300z m0-566c-147 0-267 119-267 266s120 267 267 267 267-120 267-267-120-266-267-266z m0 466c-110 0-200-89-200-200s90-200 200-200 200 90 200 200-90 200-200 200z m0-366c-92 0-167 74-167 166s75 167 167 167 167-75 167-167-75-166-167-166z m367 383c-37 0-67-30-67-67s30-66 67-66 66 30 66 66-30 67-66 67z m0-100c-19 0-34 15-34 33s15 34 34 34 33-15 33-34-15-33-33-33z" horiz-adv-x="1000" />

<glyph glyph-name="flash-o" unicode="&#xe817;" d="M598 349q23-12 26-39t-16-45l-391-370q-14-14-35-14-28 0-43 24t-6 49l113 270-220 128q-22 12-25 38t15 45l391 370q11 14 35 14 21 0 37-16t15-36q0-13-5-23l-111-267z" horiz-adv-x="624" />

<glyph glyph-name="quote-right-alt" unicode="&#xe818;" d="M18 685l335 0 0-334-335-335 0 669z m558 0l335 0 0-334-335-335 0 669z" horiz-adv-x="928" />

<glyph glyph-name="verified" unicode="&#xe819;" d="M500-150c-51 0-88 39-118 70-12 15-27 28-44 38-21 6-42 7-63 5-44 0-94-1-130 34s-33 85-32 129c2 21 0 42-5 63-10 17-23 32-38 44-31 29-70 66-70 117s39 88 70 118c15 12 28 28 38 44 5 21 7 42 5 63 0 44-2 95 33 130s86 34 130 33c21-2 42-1 63 5 17 10 32 23 44 38 29 30 66 69 117 69 52 0 88-39 118-70 12-15 28-28 44-38 21-6 42-7 63-5 45 0 95 1 130-34s34-85 33-129c-2-21 0-42 5-63 10-17 23-32 39-44 29-29 68-65 68-117s-39-88-69-118c-16-12-29-27-39-44-5-21-7-42-5-63 0-44 2-94-33-130-35-34-86-34-130-33-21 2-42 1-63-5-17-10-32-23-44-38-29-30-65-69-117-69z m-205 200c26 1 52-3 76-12 28-14 53-34 74-58 18-19 41-43 55-43 13 0 37 24 55 43 20 24 45 44 74 58 31 11 64 15 96 12 25 0 58 0 67 8 9 8 9 42 8 67-3 32 1 65 11 96 15 28 35 54 59 74 19 18 43 42 43 55s-24 37-43 55c-24 21-44 46-59 74-10 31-14 64-11 97 0 24 0 57-8 66-8 9-42 9-67 8-32-3-65 1-96 12-29 14-54 34-74 58-18 19-42 43-55 43-14 0-37-24-55-43-21-24-46-44-74-58-31-11-64-15-97-12-24 0-57 0-66-8s-9-42-8-66c2-33-1-66-12-97-14-28-34-53-59-74-19-18-42-42-42-55 0-13 23-37 42-55 25-20 45-46 59-74 11-31 14-64 12-96 0-25 0-58 8-67 8-9 41-9 66-8l21 0z m163 152c-10 0-19 4-27 10l-105 83c-18 15-21 43-6 61s42 22 60 7l75-60 161 161c17 17 44 17 61 0s17-44 0-61l-188-188c-8-8-19-13-31-13z" horiz-adv-x="1000" />

<glyph glyph-name="blueprint" unicode="&#xe81a;" d="M237 731c0 66-53 119-118 119s-119-53-119-119v-762h0c0-1 0-1 0-1 0-65 53-118 118-118h882v881h-763z m-203 0c0 41 29 76 68 83 1-8 8-15 17-15s15 7 16 15c39-7 68-42 68-83v-679c-21 22-51 35-84 35-4 0-8 0-12 0-2 0-4-1-6-1-2 0-4-1-6-1-3-1-5-1-7-2-2 0-3-1-5-1-3-1-5-2-8-3-1 0-2-1-3-1-3-1-6-3-9-5-1 0-1 0-1 0-10-6-20-13-28-21v679z m932-847h-848c-46 0-84 37-84 85 0 46 38 84 85 84s84-38 84-84h34v729h729v-814z m-186 610c3-2 6-3 10-3 5 0 10 2 14 7 5 8 3 18-4 24l-28 19c-8 6-18 4-24-4-5-7-3-18 4-23l28-20z m83-59c3-2 6-3 10-3 5 0 10 3 14 8 5 7 3 18-4 23l-28 20c-8 5-18 3-24-4-5-8-3-19 4-24l28-20z m-236-280c0-9 8-17 17-17h34c9 0 17 8 17 17s-8 17-17 17h-34c-9 0-17-7-17-17z m237 231v-34c0-9 8-17 17-17s17 8 17 17v34c0 9-7 17-17 17s-17-8-17-17z m-167 167c3-2 6-3 10-3 5 0 10 2 14 7 5 7 3 18-5 23l-27 20c-8 5-18 4-24-4-5-8-3-18 4-24l28-19z m32-398c0-9 7-17 17-17h34c9 0 17 8 17 17s-8 17-17 17h-34c-10 0-17-7-17-17z m-237 0c0 10-8 17-17 17h-34c-10 0-17-7-17-17s7-17 17-17h34c9 0 17 8 17 17z m389 78c10 0 17 8 17 17v34c0 10-7 17-17 17s-17-7-17-17v-34c0-9 8-17 17-17z m-267 378c3-2 6-3 10-3 5 0 10 3 13 7 6 8 4 19-4 24l-27 20c-8 5-19 3-24-4-5-8-4-19 4-24l28-20z m250-439h-16c-10 0-17-7-17-17s7-17 17-17h50v45c0 9-7 16-17 16s-17-7-17-16v-11z m-525-34h34c9 0 17 8 17 17s-8 17-17 17h-34c-9 0-17-7-17-17s8-17 17-17z m-34 237c10 0 17 8 17 17v34c0 10-7 17-17 17s-17-7-17-17v-34c0-9 8-17 17-17z m42 81c3 0 6 1 9 3l28 19c8 6 10 16 4 24-5 8-16 9-23 4l-28-20c-8-5-10-16-4-23 3-5 8-7 14-7z m83 58c3 0 7 1 10 3l27 20c8 5 10 16 4 24-5 7-16 9-23 4l-28-20c-8-5-10-16-4-24 3-4 8-7 14-7z m-125-240c10 0 17 7 17 17v34c0 9-7 17-17 17s-17-8-17-17v-34c0-10 8-17 17-17z m208 299c3 0 7 1 10 3l27 20c8 5 10 16 4 23-5 8-16 10-23 4l-28-19c-8-6-9-16-4-24 3-5 9-7 14-7z m12-418c0-9 8-17 17-17h34c10 0 17 8 17 17s-7 17-17 17h-34c-9 0-17-7-17-17z m-220 17c10 0 17 8 17 17v34c0 9-7 17-17 17s-17-8-17-17v-34c0-9 8-17 17-17z m390-237h220v135h-220v-135z m34 101h152v-67h-152v67z m-356 306v-34c0-10 8-17 17-17s17 7 17 17v34c0 9-8 17-17 17s-17-8-17-17z m152 50c-9 0-16-7-16-17v-33c0-10 7-17 16-17s17 7 17 17v33c0 10-7 17-17 17z m-101-33h34c9 0 17 7 17 16s-8 17-17 17h-34c-10 0-17-7-17-17s7-16 17-16z m17-119c0 9-8 17-17 17h-34c-9 0-17-8-17-17s8-17 17-17h34c9 0 17 8 17 17z m51-17h33c10 0 17 8 17 17v34c0 9-7 17-17 17s-16-8-16-17v-17h-17c-10 0-17-8-17-17s7-17 17-17z m186 152c0-9 8-16 17-16h34c9 0 17 7 17 16s-8 17-17 17h-34c-9 0-17-7-17-17z m102 0v-33c0-10 7-17 17-17s17 7 17 17v33c0 10-8 17-17 17s-17-7-17-17z m17-152c9 0 17 8 17 17v34c0 9-8 17-17 17s-17-8-17-17v-17h-17c-10 0-17-8-17-17s7-17 17-17h34z m-136 68c9 0 17 7 17 17v34c0 9-8 17-17 17s-17-8-17-17v-34c0-10 8-17 17-17z m0-68h34c9 0 17 8 17 17s-8 17-17 17h-34c-9 0-17-8-17-17s8-17 17-17z m-17-153h-85c-9 0-17-7-17-17s8-17 17-17h85c9 0 17 8 17 17s-8 17-17 17z m0-50h-119c-9 0-16-8-16-17s7-17 16-17h119c9 0 17 7 17 17s-8 17-17 17z m0-51h-169c-10 0-17-8-17-17s7-17 17-17h169c9 0 17 7 17 17s-8 17-17 17z" horiz-adv-x="1000" />

<glyph glyph-name="right-arrows-couple" unicode="&#xe81b;" d="M532 850h-95l468-500-468-500h95l468 500-468 500z m-437 0h-95l468-500-468-500h95l468 500-468 500z" horiz-adv-x="1000" />

<glyph glyph-name="paper-plane" unicode="&#xe81c;" d="M1000 664c0 0 0 0 0 1 0 1 0 2 0 4 0 0 0 0 0 1 0 1-1 3-2 4 0 1 0 1 0 1 0 0 0 0 0 0 0 0 0 0 0 0-1 1-1 1-1 1-1 1-2 3-3 4-1 0-1 0-1 0-2 1-3 2-4 2-1 0-2 1-2 1-2 0-3 0-4 0-1 0-1 0-2 0 0 0-1 0-1 0l-967-200c-7-1-12-7-13-14s3-14 9-17l277-146 48-270c0 0 0 0 0 0 0-2 0-3 0-4 0-1 1-1 1-2 0-2 1-3 2-5 0 0 0 0 0 0 0-1 0-1 0-1 0 0 1 0 1-1 1 0 1-1 2-2 1 0 1 0 1-1 0 0 0 0 1 0 1-1 2-1 3-2 0 0 1 0 1 0 2-1 3-1 5-1 0 0 0 0 0 0h0c0 0 0 0 0 0 0 0 0 0 0 0 0 0 1 0 1 0 4 0 9 2 12 5l184 123 193-125c3-2 6-3 9-3 2 0 4 0 6 1 4 2 8 5 10 10l233 633c0 0 0 1 1 1 0 1 0 1 0 1 0 0 0 0 0 1z m-193-107l-400-293c0-1-1-1-1-2 0 0-1 0-1-1 0 0-1 0-1-1 0 0 0-1-1-1 0-1-1-2-1-3 0 0 0-1 0-1 0 0-1 0-1 0l-45-149-37 202 488 249z m-426-483l46 150 71-46 20-13-69-46-68-45z m486 551l-566-289-236 124 802 165z m-125-566l-257 167-38 25 502 369-207-561z" horiz-adv-x="1000" />

<glyph glyph-name="quote-left-alt" unicode="&#xe81d;" d="M911 16l-335 0 0 335 335 334 0-669z m-558 0l-335 0 0 335 335 334 0-669z" horiz-adv-x="928" />

<glyph glyph-name="grid-view" unicode="&#xe81e;" d="M1000 850v-440h-440v440h440z m-320-320h200v200h-200v-200z m-240 320v-440h-440v440h440z m-320-320h200v200h-200v-200z m880-240v-440h-440v440h440z m-320-320h200v200h-200v-200z m-240 320v-440h-440v440h440z m-320-320h200v200h-200v-200z" horiz-adv-x="1000" />

<glyph glyph-name="flash" unicode="&#xe81f;" d="M40-100q-4 4 35 94t79 182 38 98-94 45-98 55q-4 12 84 120t180 209 96 97q6-4-74-186t-78-186 95-43 97-57q4-20-174-227t-186-201z" horiz-adv-x="400" />

<glyph glyph-name="user-setting" unicode="&#xe820;" d="M977 111l-24 5c-12 2-21 10-26 21-4 11-2 23 5 32l15 22c5 6 4 16-2 22l-33 34c-6 6-15 6-22 2l-21-14c-6-4-12-6-19-6-15 0-31 10-34 29l-4 26c-1 8-8 14-17 14h-48c-8 0-15-6-17-14l-6-32c-3-18-19-27-33-27-7 0-13 2-19 5l-27 19c-7 4-16 4-22-2l-34-34c-6-6-7-16-2-22l16-22c7-9 9-21 4-32-4-11-13-19-25-21l-25-5c-8-2-14-9-14-17v-48c0-8 6-15 15-17l26-4c12-2 21-9 26-20 5-11 4-23-3-32l-14-21c-5-7-4-16 2-22l33-34c6-6 16-7 23-2l21 16c6 4 13 6 20 6 14 0 30-9 34-27l4-25c2-8 9-14 17-14h48c9 0 16 6 17 15l3 18c3 19 19 29 34 29 7 0 14-2 20-7l15-11c7-5 16-4 22 2l34 34c6 6 7 15 2 22l-14 21c-7 9-8 21-3 32 4 11 14 18 26 20l26 4c8 2 14 9 14 17v48c0 8-5 15-14 17z m-20-50l-12-2c-23-3-42-18-52-40-9-22-7-46 6-66l6-9-13-13-3 2c-12 9-26 13-40 13-34 0-63-24-68-58l-1-4h-18l-2 11c-7 33-35 56-68 56-14 0-28-5-40-13l-10-7-13 13 6 9c14 20 16 44 6 66-9 22-29 37-52 40l-11 2v19l11 2c23 4 42 20 50 42 9 22 6 47-8 66l-7 9 13 13 16-10c11-8 24-12 38-12 33 0 61 23 67 56l4 18h18l2-12c5-33 34-58 68-58 14 0 27 4 38 12l9 6 14-13-7-9c-14-19-17-44-9-66 9-22 28-38 51-42l11-2v-19z m-190 99c-47 0-86-38-86-86s39-86 86-86 86 39 86 86-38 86-86 86z m0-138c-28 0-51 24-51 52s23 52 51 52 52-23 52-52-23-52-52-52z m-219-44l-42 7c-8 1-15 8-15 17v135c0 8 6 15 14 17l40 7-26 35c-5 7-4 16 2 22l96 95c5 6 15 7 21 3l7-5c1 2 2 4 3 6 21 11 35 32 35 57v61c0 15-5 29-15 41v80c1 9 4 60-32 101-32 37-84 55-153 55s-121-18-153-55c-37-41-33-92-33-101v-80c-9-11-15-26-15-41v-61c0-19 9-37 23-49 14-54 43-96 54-110v-50c0-14-8-27-20-33l-137-75c-4-2-8-5-13-8-89 80-146 197-146 327 0 242 197 440 440 440s439-198 439-440c0-21-1-42-4-62 0 0 0 0 0 0l30-30c6 30 9 60 9 92 0 261-213 474-474 474s-474-213-474-474c0-138 59-263 154-349l-1-1 15-13c1-1 3-1 4-2 8-7 16-13 25-20 3-2 5-4 8-6 9-6 19-12 29-18 2-1 4-2 6-3 10-6 21-12 32-17 1-1 2-1 3-1 36-17 74-29 114-37 1 0 3 0 4 0 12-2 25-4 37-5 2 0 4 0 5-1 13-1 26-1 39-1 13 0 25 0 38 1 2 1 3 1 5 1 6 0 13 1 19 2l-17 17c-6 6-7 15-2 22l22 33z" horiz-adv-x="1000" />

<glyph glyph-name="chat" unicode="&#xe821;" d="M200 567h250c9 0 17 7 17 16s-8 17-17 17h-250c-9 0-17-7-17-17s8-16 17-16z m567-100h-567c-9 0-17-8-17-17s8-17 17-17h567c9 0 16 8 16 17s-7 17-16 17z m0-134h-567c-9 0-17-7-17-16s8-17 17-17h567c9 0 16 8 16 17s-7 16-16 16z m133 484h-800c-54 0-100-46-100-100v-550c0-54 46-100 100-100h476l162-178c3-4 7-6 12-6 2 0 4 1 6 1 6 3 11 9 11 16v167h133c54 0 100 46 100 100v550c0 54-46 100-100 100z m67-650c0-36-31-67-67-67h-150c-9 0-17-7-17-17v-140l-137 152 0 0-83 96c-6 7-17 8-24 2-7-6-8-17-2-24l60-69h-447c-36 0-67 31-67 67v550c0 36 31 66 67 66h800c36 0 67-30 67-66v-550z" horiz-adv-x="1000" />

<glyph glyph-name="chat-o" unicode="&#xe822;" d="M200 567h250c9 0 17 7 17 16s-8 17-17 17h-250c-9 0-17-7-17-17s8-16 17-16z m567-100h-567c-9 0-17-8-17-17s8-17 17-17h567c9 0 16 8 16 17s-7 17-16 17z m0-134h-567c-9 0-17-7-17-16s8-17 17-17h567c9 0 16 8 16 17s-7 16-16 16z m133 484h-800c-54 0-100-46-100-100v-550c0-54 46-100 100-100h133v-167c0-7 5-13 11-16 2 0 4-1 6-1 5 0 9 2 12 6l162 178h476c54 0 100 46 100 100v550c0 54-46 100-100 100z m67-650c0-36-31-67-67-67h-447l60 69c6 7 5 18-2 24-7 6-18 5-24-2l-83-96 0 0-137-152v140c0 10-8 17-17 17h-150c-36 0-67 31-67 67v550c0 36 31 66 67 66h800c36 0 67-30 67-66v-550z" horiz-adv-x="1000" />

<glyph glyph-name="next-arrow" unicode="&#xe823;" d="M673 691c-13 14-36 14-50 0-14-14-14-36 0-50l256-255h-844c-19 0-35-16-35-36 0-19 16-35 35-35h844l-256-256c-14-14-14-36 0-50 14-14 37-14 50 0l316 316c15 14 15 36 0 50l-316 316z" horiz-adv-x="1000" />

<glyph glyph-name="place" unicode="&#xe824;" d="M503 631c-70 0-128-57-128-128s58-128 128-128 128 58 128 128-57 128-128 128z m0-219c-50 0-91 41-91 91s41 91 91 91 92-41 92-91-41-91-92-91z m245 335c-66 67-154 103-248 103-93 0-181-36-248-103-122-122-137-352-33-492l281-405 280 405c105 140 90 370-32 492z m3-471l-251-362-251 363c-95 126-81 334 29 445 60 59 138 92 222 92s163-33 222-92c110-111 124-319 29-446z" horiz-adv-x="1000" />

<glyph glyph-name="eye" unicode="&#xe825;" d="M0 341l0 18q0 1 2 3l0 4q70 130 206 213t290 83 291-83 205-215l1-1 1-1 0-4q2-6 2-8t-2-8l0-4-1-1-1-1q-68-132-205-215t-291-83-290 83-206 215l0 2q-2 2-2 3z m66 9q65-113 183-182t250-68 250 68 183 182q-65 113-183 182t-250 68-250-68-183-182z m213 0q0 90 65 154t154 65 154-65 65-154-65-154-154-65-154 65-65 154z m32 0q0-78 54-133t133-54 133 54 55 133-55 133-133 55-133-55-54-133z m62 0q0 53 37 89t88 36q16 0 16-16t-16-15q-37 0-65-28t-29-66q0-16-15-16t-16 16z" horiz-adv-x="998" />

<glyph glyph-name="diagram" unicode="&#xe826;" d="M965 707l-67 134c-4 8-14 11-22 7 0 0 0 0 0 0l-133-66c-9-4-12-15-8-23s14-11 22-7l97 48-26-75c-116-330-414-561-763-592l3-33c362 31 671 272 791 614l27 77 49-98c4-9 14-12 22-8 9 4 12 14 8 22z m-765-657h-117c-9 0-16-7-16-17v-100c0-9 7-16 16-16h117c9 0 17 7 17 16v100c0 10-8 17-17 17z m-17-100h-83v67h83v-67z m200 150h-116c-9 0-17-7-17-17v-150c0-9 8-16 17-16h116c10 0 17 7 17 16v150c0 10-7 17-17 17z m-16-150h-84v117h84v-117z m200 233h-117c-9 0-17-7-17-16v-234c0-9 8-16 17-16h117c9 0 16 7 16 16v234c0 9-7 16-16 16z m-17-233h-83v200h83v-200z m200 350h-117c-9 0-16-7-16-17v-350c0-9 7-16 16-16h117c9 0 17 7 17 16v350c0 10-8 17-17 17z m-17-350h-83v317h83v-317z m200 583h-116c-9 0-17-7-17-16v-584c0-9 8-16 17-16h116c10 0 17 7 17 16v584c0 9-7 16-17 16z m-16-583h-84v550h84v-550z" horiz-adv-x="1000" />

<glyph glyph-name="comment" unicode="&#xe827;" d="M656 319h-312c-17 0-31-14-31-31s14-32 31-32h312c18 0 32 14 32 32s-14 31-32 31z m63 187h-438c-17 0-31-14-31-31s14-31 31-31h438c17 0 31 14 31 31s-14 31-31 31z m-219 344c-276 0-500-196-500-437 0-139 73-261 188-342v-221l219 133c30-5 61-8 93-8 276 0 500 196 500 438 0 241-224 437-500 437z m0-812c-36 0-72 4-106 11l-147-89 2 146c-113 67-186 179-186 307 0 207 195 375 437 375 242 0 438-168 438-375s-196-375-438-375z" horiz-adv-x="1000" />

<glyph glyph-name="verified-o" unicode="&#xe828;" d="M500-150c-51 0-88 39-118 70-12 15-27 28-44 38-21 6-42 7-63 5-44 0-94-1-130 34s-33 85-32 129c2 21 0 42-5 63-10 17-23 32-38 44-31 29-70 66-70 117s39 88 70 118c15 12 28 28 38 44 5 21 7 42 5 63 0 44-2 95 33 130s86 34 130 33c21-2 42-1 63 5 17 10 32 23 44 38 29 30 66 69 117 69 52 0 88-39 118-70 12-15 28-28 44-38 21-6 42-7 63-5 45 0 95 1 130-34s34-85 33-129c-2-21 0-42 5-63 10-17 23-32 39-44 29-29 68-65 68-117s-39-88-69-118c-16-12-29-27-39-44-5-21-7-42-5-63 0-44 2-94-33-130-35-34-86-34-130-33-21 2-42 1-63-5-17-10-32-23-44-38-29-30-65-69-117-69z m-205 200c26 1 52-3 76-12 28-14 53-34 74-58 18-19 41-43 55-43 13 0 37 24 55 43 20 24 45 44 74 58 31 11 64 15 96 12 25 0 58 0 67 8 9 8 9 42 8 67-3 32 1 65 11 96 15 28 35 54 59 74 19 18 43 42 43 55s-24 37-43 55c-24 21-44 46-59 74-10 31-14 64-11 97 0 24 0 57-8 66-8 9-42 9-67 8-32-3-65 1-96 12-29 14-54 34-74 58-18 19-42 43-55 43-14 0-37-24-55-43-21-24-46-44-74-58-31-11-64-15-97-12-24 0-57 0-66-8s-9-42-8-66c2-33-1-66-12-97-14-28-34-53-59-74-19-18-42-42-42-55 0-13 23-37 42-55 25-20 45-46 59-74 11-31 14-64 12-96 0-25 0-58 8-67 8-9 41-9 66-8l21 0z m163 152c-10 0-19 4-27 10l-105 83c-18 15-21 43-6 61s42 22 60 7l75-60 161 161c17 17 44 17 61 0s17-44 0-61l-188-188c-8-8-19-13-31-13z" horiz-adv-x="1000" />

<glyph glyph-name="calendar" unicode="&#xe829;" d="M418 400h-145c-11 0-21-10-21-21v-145c0-12 10-21 21-21h145c12 0 21 9 21 21v145c0 11-9 21-21 21z m-20-146h-104v104h104v-104z m533 422h-152v27c0 12-10 22-23 22-12 0-23-10-23-22v-27h-125v27c0 12-10 22-22 22-13 0-23-10-23-22v-27h-125v27c0 12-11 22-23 22s-23-10-23-22v-27h-125v27c0 12-11 22-23 22s-23-10-23-22v-27h-152c-38 0-69-31-69-69v-563c0-38 31-69 69-69h862c38 0 69 31 69 69v563c0 38-31 69-69 69z m0-655h-862c-13 0-23 10-23 22v564c0 13 10 23 23 23h152v-26c0-13 10-23 23-23 12 0 23 10 23 23v26h125v-26c0-13 10-23 23-23s23 10 23 23v26h125v-26c0-13 10-23 23-23 12 0 22 10 22 23v26h125v-26c0-13 11-23 23-23 13 0 23 10 23 23v26h152c13 0 23-10 23-23v-563h0c0-13-10-23-23-23z" horiz-adv-x="1000" />

<glyph glyph-name="calendar-o" unicode="&#xe82a;" d="M950 783h-117v50c0 10-7 17-16 17h-117c-9 0-17-7-17-17v-50h-366v50c0 10-8 17-17 17h-117c-9 0-16-7-16-17v-50h-117c-9 0-17-7-17-16v-184-716c0-10 8-17 17-17h900c9 0 17 7 17 17v716 184c0 9-8 16-17 16z m-233 34h83v-50-50h-83v50 50z m-517 0h83v-50-50h-83v50 50z m-133-67h100v-50c0-9 7-17 16-17h117c9 0 17 8 17 17v50h366v-50c0-9 8-17 17-17h117c9 0 16 8 16 17v50h100v-150h-866v150z m0-867v684h866v-684h-866z m566 584h-116-34-116-34-150v-150-34-116-34-150h150 34 116 34 116 34 150v150 34 116 34 150h-150-34z m-116-34h116v-116h-116v116z m116-266h-116v116h116v-116z m-266 116h116v-116h-116v116z m0 150h116v-116h-116v116z m-150 0h116v-116h-116v116z m0-150h116v-116h-116v116z m116-266h-116v116h116v-116z m150 0h-116v116h116v-116z m150 0h-116v116h116v-116z m150 0h-116v116h116v-116z m0 150h-116v116h116v-116z m0 266v-116h-116v116h116z" horiz-adv-x="1000" />

<glyph glyph-name="video" unicode="&#xe82b;" d="M630 365l-190 120c-5 4-12 4-17 1-6-3-9-9-9-15v-242c0-6 3-12 9-15 2-1 5-2 8-2 3 0 7 1 9 3l190 120c5 4 8 9 8 15s-3 11-8 15z m-182-104v178l141-89-141-89z m535 486h-173-620-173c-9 0-17-8-17-18v-189-190-190-189c0-10 8-18 17-18h173 620 173c9 0 17 8 17 18v189 190 190 189c0 10-8 18-17 18z m-811-380h-137v155h137v-155z m-137-34h137v-155h-137v155z m172-173v190 190 172h586v-172-190-190-172h-586v172z m759 207h-138v155h138v-155z m-138-34h138v-155h-138v155z m138 379v-155h-138v155h138z m-931 0h137v-155h-137v155z m0-724v155h137v-155h-137z m931 0h-138v155h138v-155z" horiz-adv-x="1000" />

<glyph glyph-name="tick-o" unicode="&#xe82c;" d="M875 588l-535-600-340 338 123 124 196-195 420 457z" horiz-adv-x="875" />

<glyph glyph-name="user-o" unicode="&#xe82d;" d="M1000 350c0 276-224 500-500 500s-500-224-500-500c0-146 63-277 162-368l0-1 16-13c1-1 2-2 3-3 9-7 18-14 27-20 3-3 6-5 9-7 10-6 20-13 30-19 2-1 4-2 6-4 12-6 23-12 35-18 0 0 1 0 2-1 38-17 79-30 121-38 1 0 2 0 3-1 14-2 27-4 40-5 2 0 4 0 5 0 14-1 27-2 41-2 14 0 27 1 40 2 2 0 4 0 6 0 13 1 26 3 39 5 1 1 2 1 4 1 41 7 81 20 119 37 1 1 3 2 4 2 11 5 22 11 33 17 3 2 5 3 8 5 10 6 19 12 29 18 3 2 6 5 10 7 8 6 15 12 23 18 2 1 3 3 5 4l17 14-1 0c101 92 164 224 164 370z m-964 0c0 256 208 464 464 464s464-208 464-464c0-138-61-262-156-347-6 4-11 7-17 10l-154 77c-13 7-22 21-22 36v54c4 5 7 10 11 15 20 28 36 59 48 93 23 11 38 34 38 60v64c0 16-6 31-16 44v84c0 10 4 63-35 107-33 38-87 58-161 58s-128-20-161-58c-39-44-35-97-34-107v-84c-11-12-17-28-17-44v-64c0-20 9-39 25-51 15-58 45-102 56-116v-53c0-15-8-29-21-36l-144-78c-4-3-9-5-13-9-95 85-155 208-155 345z m736-375c-6-5-13-9-19-14-3-2-6-3-9-5-9-6-18-11-27-15-2-2-4-2-6-4-20-10-41-19-63-26-1-1-2-1-2-1-12-4-23-7-35-10 0 0 0 0 0 0-12-3-24-6-36-7 0-1 0-1-1-1-11-2-22-3-34-4-2 0-4 0-6 0-11-1-23-2-34-2-11 0-23 1-34 2-2 0-4 0-6 0-12 1-23 3-35 4 0 1-1 1-1 1-24 4-48 10-71 17-1 1-1 1-2 1-12 4-23 8-34 13 0 0 0 0 0 0-11 5-21 10-31 15-2 1-3 1-4 2-9 5-19 10-28 16-2 2-5 3-7 5-9 5-17 11-25 17-1 1-1 1-2 2 0 0 1 1 2 1l143 78c25 14 40 40 40 68l0 65-4 5c0 1-39 49-54 113l-2 8-6 4c-9 5-14 15-14 25v64c0 9 3 17 10 23l6 5v101l0 3c0 0-6 44 25 79 26 30 72 45 134 45 62 0 107-15 134-45 30-34 25-79 25-79l0-104 6-5c7-6 10-14 10-23v-64c0-13-9-25-21-29l-9-2-3-9c-11-34-26-65-46-92-4-7-9-13-13-17l-4-5v-68c0-29 16-55 42-68l154-77c1-1 2-1 3-2-2-1-4-3-6-4z" horiz-adv-x="1000" />

<glyph glyph-name="avatar" unicode="&#xe82e;" d="M496 311c1 0 2 0 4 0 0 0 1 0 1 0 1 0 1 0 2 0 61 1 110 23 146 63 80 90 67 244 65 259-5 110-57 163-100 188-32 18-70 28-112 29h-1c0 0-1 0-1 0h-1c-23 0-68-4-112-28-43-25-96-78-101-189-2-15-15-169 65-259 36-40 85-62 145-63z m-155 317c0 0 0 1 0 2 7 148 112 164 157 164h1c1 0 1 0 2 0 56-1 151-24 157-164 0-1 0-2 1-2 0-2 14-142-52-217-26-29-60-43-106-44-1 0-1 0-1 0l0 0c-1 0-1 0-1 0-46 1-81 15-107 44-65 74-51 216-51 217z m584-572c0 0 0 0 0 0 0 2 0 4 0 5-1 41-4 137-94 168 0 0-1 0-2 1-93 23-171 77-172 78-12 9-30 6-39-7-9-13-5-30 7-39 4-2 86-60 189-86 49-17 54-69 55-116 0-2 0-4 1-5 0-19-1-48-5-64-33-19-165-85-365-85-199 0-331 66-365 85-3 16-5 45-4 64 0 2 0 3 0 5 1 47 7 99 55 116 103 27 185 84 189 86 13 9 16 27 7 39-9 13-27 16-39 7-1-1-78-54-172-78-1 0-2-1-2-1-90-31-93-127-94-167 0-2 0-4 0-5 0-1 0-1 0-1 0-11-1-66 10-94 2-5 6-10 11-13 6-4 155-99 404-99s398 95 405 99c4 3 8 8 10 13 11 28 11 83 10 94z" horiz-adv-x="1000" />

<glyph glyph-name="cross-o" unicode="&#xe82f;" d="M123 654l181-181 181 181 123-124-182-178 183-184-124-121-181 182-181-182-123 122 183 183-182 178z" horiz-adv-x="609" />

<glyph glyph-name="search-o" unicode="&#xe830;" d="M991-99l-243 243c65 75 105 173 105 280 0 235-191 426-426 426-236 0-427-191-427-426s192-427 427-427c106 0 204 40 279 105l243-243c6-6 14-9 21-9s16 3 21 9c12 11 12 30 0 42z m-931 523c0 202 164 366 366 366 203 0 367-164 367-366s-164-367-367-367c-202 0-366 164-366 367z" horiz-adv-x="1000" />

<glyph glyph-name="thumb" unicode="&#xe831;" d="M957 170c20 26 30 54 29 83-1 32-15 57-27 72 13 34 19 87-27 129-33 30-89 44-168 40-55-3-101-13-103-13h0c-10-2-21-4-33-7 0 13 2 47 27 122 29 89 27 157-6 202-35 48-90 52-106 52-16 0-30-6-41-18-23-27-20-77-17-100-28-74-105-256-171-306-1-1-2-2-3-3-19-20-32-42-41-61-12 6-26 10-41 10h-128c-48 0-87-39-87-87v-340c0-48 39-87 87-87h128c18 0 36 6 50 16l49-6c7-1 141-18 279-15 25-2 48-3 70-3 37 0 70 3 97 9 64 13 108 41 130 80 17 31 17 61 14 81 42 37 49 79 47 108 0 17-4 32-8 42z m-856-255c-17 0-31 13-31 30v340c0 17 14 31 31 31h128c17 0 30-14 30-31v-340c0-17-14-30-30-30h-128v0z m802 280c-8-10-10-24-3-34 0-1 8-15 9-35 2-28-11-52-39-73-10-7-14-20-10-32 0 0 9-28-5-54-14-25-46-43-93-53-38-8-89-10-152-5-1 0-2 0-3 0-135-3-271 15-272 15h0l-21 3c1 6 2 12 2 18v340c0 9-2 18-4 26 3 14 14 45 38 72 94 74 186 325 190 336 2 5 2 10 1 14-3 24-2 52 3 61 11 0 41-3 59-28 21-30 21-82-2-152-36-107-38-163-11-187 14-13 33-13 46-9 13 3 25 6 36 8 1 0 2 0 3 0 64 14 179 23 219-13 34-31 10-72 7-77-7-11-5-27 5-36 1 0 22-21 24-49 0-18-8-38-27-56z" horiz-adv-x="1000" />

<glyph glyph-name="tick" unicode="&#xe832;" d="M0 339q0-35 24-60l246-239q24-25 60-25 36 0 60 25l505 495q25 24 25 59t-25 58q-25 25-60 25t-60-25l-445-435-185 181q-25 24-60 24t-61-24q-24-24-24-59z" horiz-adv-x="920.4" />

<glyph glyph-name="user" unicode="&#xe833;" d="M800 135l-159 80c-15 7-24 22-24 39v57c4 4 8 10 12 15 20 30 37 62 49 97 23 11 39 34 39 60v67c0 16-6 32-17 44v88c1 10 5 64-35 109-34 39-90 59-165 59s-131-20-165-59c-40-45-36-99-35-109v-88c-11-12-17-28-17-44v-67c0-20 10-39 25-51 16-61 48-106 59-121v-55c0-16-9-31-23-39l-149-81c-48-26-78-77-78-132v-54c0-79 250-100 383-100s383 21 383 100v51c0 57-31 109-83 134z m50-185c0-23-123-67-350-67s-350 44-350 67v54c0 43 23 82 61 103l149 81c25 13 40 39 40 68v67l-4 4c0 1-41 50-57 118l-1 7-6 3c-10 7-15 17-15 28v67c0 9 4 18 11 25l5 5v103l0 3c0 0-5 46 27 83 28 32 75 48 140 48 65 0 112-16 140-47 32-37 27-84 27-84l0-106 5-5c7-7 11-16 11-25v-67c0-14-9-27-23-31l-9-3-2-8c-11-35-27-67-48-95-4-7-9-14-13-18l-5-5v-69c0-29 17-56 43-69l159-80c40-20 65-60 65-104v-51z" horiz-adv-x="1000" />

<glyph glyph-name="avatar-o" unicode="&#xe834;" d="M854 204c-55 54-120 94-190 119 75 52 125 139 125 238 0 159-130 289-289 289s-289-130-289-289c0-99 50-186 125-238-70-25-135-65-190-119-94-95-146-220-146-354h78c0 233 189 422 422 422s422-189 422-422h78c0 134-52 259-146 354z m-354 146c-116 0-211 95-211 211s95 211 211 211c116 0 211-95 211-211s-95-211-211-211z" horiz-adv-x="1000" />

<glyph glyph-name="back-arrow" unicode="&#xe835;" d="M326 691c14 14 37 14 51 0 13-14 13-36 0-50l-256-255h843c20 0 36-16 36-36 0-19-16-35-36-35h-843l256-255c13-15 13-37 0-51-14-14-37-14-51 0l-316 316c-13 14-13 36 0 50l316 316z" horiz-adv-x="1000" />

<glyph glyph-name="cross" unicode="&#xe836;" d="M0 90q0 36 26 62l195 195-195 196q-26 25-26 61t26 61 61 25 61-25l196-196 195 196q25 25 61 25t61-25 25-61-25-61l-195-196 195-195q25-26 25-62t-25-61q-25-25-61-25t-61 25l-195 195-196-195q-25-25-61-25t-61 25q-26 26-26 61z" horiz-adv-x="686.5" />

<glyph glyph-name="map" unicode="&#xe837;" d="M500 417c64 0 117 52 117 116s-53 117-117 117-117-52-117-117 53-116 117-116z m0 200c46 0 83-38 83-84s-37-83-83-83-83 37-83 83 37 84 83 84z m-3-680l256 370c96 128 82 338-30 449-60 61-141 94-226 94s-166-33-226-94c-112-111-125-321-30-449l256-370z m-202 796c54 54 126 84 202 84s148-30 203-84c100-101 113-291 26-407l-229-330-229 331c-87 115-74 305 27 406z m407-600c-9 1-17-5-18-14s5-18 14-19c175-20 269-76 269-108 0-46-178-109-467-109s-467 63-467 109c0 32 94 88 269 108 9 1 16 10 15 19-1 9-10 15-19 14-175-20-298-79-298-141 0-71 172-142 500-142s500 71 500 142c0 62-123 121-298 141z" horiz-adv-x="1000" />

<glyph glyph-name="check-t" unicode="&#xe838;" d="M878 382c-1 14-13 25-28 24-15-1-26-14-25-28 1-9 1-19 1-28 0-213-173-386-386-386-213 0-387 173-387 386s174 386 387 386c84 0 164-26 231-77 12-9 29-6 38 5 9 12 6 29-5 38-77 57-168 88-264 88-243 0-440-197-440-440s197-440 440-440 440 198 440 440c0 11-1 21-2 32z m92 347c-41 41-107 41-148 0l-385-385-136 137c-41 41-107 41-148 0-40-41-40-107 0-148l235-235c14-13 31-20 49-20 18 0 36 7 49 20l484 484c40 41 40 107 0 147z m-38-109l-484-484c-6-6-16-6-22 0l-235 235c-20 20-20 52 0 72 10 10 23 15 36 15s26-5 36-15l140-140c9-9 21-14 34-14 13 0 25 5 34 14l389 389c20 19 52 19 72 0 20-20 20-52 0-72z" horiz-adv-x="1000" />

<glyph glyph-name="check-o" unicode="&#xe839;" d="M916 431c-22 0-41-18-41-40v-41c0-106-41-206-116-281-75-75-175-116-281-116 0 0 0 0 0 0-219 0-397 178-397 397 0 106 41 206 116 281 75 75 175 116 281 116 0 0 0 0 0 0 56 0 111-11 162-34 20-9 44 0 53 20 9 21 0 45-20 54-62 27-127 41-195 41 0 0 0 0 0 0-127 0-247-50-338-140-90-90-140-210-140-338 0-127 50-247 140-338 90-90 210-140 338-140 0 0 0 0 0 0 128 0 248 49 338 140 90 90 140 210 140 338v41c0 22-18 40-40 40z m72 341c-16 16-41 16-57 0l-453-453-103 103c-15 16-41 16-57 0-15-16-15-41 0-57l132-131c7-8 18-12 28-12 11 0 21 4 29 12l481 481c16 16 16 42 0 57z" horiz-adv-x="1000" />

<glyph glyph-name="search" unicode="&#xe83a;" d="M643 386q0 103-73 176t-177 74-177-74-73-176 73-177 177-73 177 73 73 177z m286-465q0-29-22-50t-50-21q-30 0-50 21l-191 191q-100-69-223-69-80 0-153 31t-125 84-84 125-31 153 31 152 84 126 125 84 153 31 153-31 125-84 84-126 31-152q0-123-69-223l191-191q21-21 21-51z" horiz-adv-x="928.6" />

<glyph glyph-name="shar" unicode="&#xe83b;" d="M677 139c-9-9-17-18-23-29l-293 178c8 20 12 41 12 63 0 22-4 43-12 62l293 177c30-47 83-79 143-79 93 0 169 76 169 170s-76 169-169 169-170-76-170-169c0-22 4-42 11-61l-293-177c-30 47-82 77-142 77-93 0-169-76-169-169s76-170 169-170c60 0 112 31 142 77l293-178c-7-19-11-39-11-61 0-45 18-87 50-119 33-34 76-50 120-50s86 16 120 50c32 32 49 74 49 119s-17 88-49 120c-67 66-174 66-240 0z m120 677c74 0 135-61 135-135s-61-136-135-136-136 61-136 136 61 135 136 135z m-594-601c-74 0-135 61-135 136s61 135 135 135 136-60 136-135-61-136-136-136z m690-292c-53-52-139-52-192 0-26 26-40 60-40 96s14 71 40 96c26 27 61 40 96 40s69-13 96-40c25-25 39-59 39-96s-14-70-39-96z" horiz-adv-x="1000" />

<glyph glyph-name="share-t" unicode="&#xe83c;" d="M792 208c-57 0-108-28-141-70l-275 153c7 19 10 39 10 59 0 21-3 41-10 59l274 154c33-43 84-71 142-71 99 0 179 81 179 179s-80 179-179 179-179-80-179-179c0-20 4-40 11-59l-275-153c-32 43-84 70-142 70-98 0-178-80-178-179s80-179 179-179c57 0 109 28 142 71l274-154c-6-18-10-38-10-59 0-99 80-179 179-179s178 80 178 179-80 179-179 179z m0 586c68 0 123-55 123-123s-55-123-123-123-122 55-122 123 55 123 122 123z m-584-566c-68 0-123 55-123 122s55 123 123 123 122-55 122-123-55-122-122-122z m584-322c-67 0-122 55-122 123 0 68 55 123 122 123s123-55 123-123c0-68-55-123-123-123z" horiz-adv-x="1000" />

<glyph glyph-name="share-o" unicode="&#xe83d;" d="M791 178c-52 0-99-25-129-63l-301 174c8 19 12 39 12 61 0 22-4 42-12 61l301 174c30-38 77-63 129-63 90 0 164 74 164 164 0 90-74 164-164 164s-164-74-164-164c0-21 4-42 12-61l-301-174c-30 38-77 63-129 63-90 0-164-74-164-164 0-90 74-164 164-164 52 0 99 25 129 63l301-174c-8-19-12-39-12-61 0-90 74-164 164-164s164 74 164 164c0 90-74 164-164 164z m0 626c65 0 118-53 118-118 0-65-53-117-118-117-65 0-117 52-117 117 0 65 52 118 117 118z m-582-571c-65 0-117 52-117 117 0 65 52 118 117 118 65 0 118-53 118-118 0-65-53-117-118-117z m582-337c-65 0-117 53-117 118 0 65 52 118 117 118 65 0 118-53 118-118 0-65-53-118-118-118z m-582 523c-38 0-69-31-69-69 0-13 10-23 23-23s23 10 23 23c0 13 11 23 23 23 13 0 23 10 23 23 0 13-10 23-23 23z" horiz-adv-x="1000" />

<glyph glyph-name="villa" unicode="&#xe83e;" d="M113 398h129a16 16 0 0 1 16 17v96a16 16 0 0 1-16 16h-129a16 16 0 0 1-16-16v-96a16 16 0 0 1 16-17z m113 33h-32v64h32z m-97 64h32v-64h-32z m177-97h130a16 16 0 0 1 16 17v96a16 16 0 0 1-16 16h-130a16 16 0 0 1-16-16v-96a16 16 0 0 1 16-17z m113 33h-32v64h32z m-96 64h32v-64h-32z m666-146l-473 142v20h113a65 65 0 0 1 16 127c0 1 0 2 0 2a81 81 0 0 1-154 32 80 80 0 0 1-25-7l-180 180a16 16 0 0 1-23 0l-226-226a16 16 0 0 1-5-11v-661h-16a16 16 0 0 1-16-16v-65a16 16 0 0 1 16-16h968a16 16 0 0 1 16 16v65a16 16 0 0 1-16 16h-16v294l11-3a16 16 0 0 1 21 15v81a16 16 0 0 1-11 15z m-505 243v-226h-419v226z m0-323h-32v65h32z m-323 65v-65h-32v65z m33 0h32v-65h-32z m64 0h32v-65h-32z m65 0h32v-65h-32z m64 0h32v-65h-32z m-290 0v-65h-32v65z m387-97v-32h-419v32z m15 403c1 0 2 0 3 0a16 16 0 0 1 16 12 48 48 0 1 0 93-24 16 16 0 0 1 3-14 16 16 0 0 1 13-6 5 5 0 0 1 2 0 32 32 0 1 0 0-64h-113v64a16 16 0 0 1-5 12l-20 20a43 43 0 0 0 8 0z m-225 171l187-187h-374z m-209-638h419v-226h-97v145a16 16 0 0 1-16 16h-194a16 16 0 0 1-16-16v-145h-96z m129-226v129h64v-129z m96 129h65v-129h-65z m678-194h-936v32h936z m-97 258h-290v33h290z m-290-32h290v-32h-290z m0-64h290v-97h-290z m355-97h-33v242a16 16 0 0 1-16 16h-322a16 16 0 0 1-17-16v-242h-32v430l420-126z m32 328l-452 135v47l452-135z m-178 365h129a81 81 0 0 1 10 161 81 81 0 0 1-155-32c0 0 0-1 0-2a65 65 0 0 1 16-127z m-1 97c1 0 2 0 3 0a16 16 0 0 1 13 6 16 16 0 0 1 3 14 48 48 0 1 0 94 24 16 16 0 0 1 16-12c1 0 2 0 1 0a48 48 0 1 0 0-96h-129a32 32 0 0 0-1 64z" horiz-adv-x="1000" />

<glyph glyph-name="camera-t" unicode="&#xe83f;" d="M942 678h-884c-32 0-58-26-58-58v-608c0-33 26-59 58-59h884c32 0 58 26 58 59v608c0 32-26 58-58 58z m24-666c0-14-11-24-24-24h-884c-13 0-23 10-23 24v608c0 13 10 23 23 23h884c13 0 24-10 24-23v-608z m-449 597c-161 0-293-132-293-293s132-294 293-294 293 132 293 294-131 293-293 293z m0-552c-142 0-258 116-258 259s116 258 258 258 259-116 259-258-116-259-259-259z m-172 655h327c10 0 18 8 18 17s-8 18-18 18h-327c-10 0-17-8-17-18s7-17 17-17z" horiz-adv-x="1000" />

<glyph glyph-name="add-property" unicode="&#xe840;" d="M177 849c0-1-1-1-2-2-3-1-172-170-174-173-1-3-1-16-1-343 0-297 0-340 1-344a49 49 0 0 1 26-32c13-6-16-5 295-5h278l2-2c1-1 5-6 8-11a212 212 0 0 1 62-56 241 241 0 0 1 28-14c2-1 5-2 6-3a207 207 0 0 1 37-10 210 210 0 0 1 97 4c5 1 18 5 22 7a283 283 0 0 1 32 16c7 4 21 13 21 14 1 0 3 2 6 5a230 230 0 0 1 39 41c5 7 14 22 16 27 4 8 8 17 8 18a17 17 0 0 0 2 3c0 2 1 4 1 5 1 2 6 18 7 23a195 195 0 0 1 6 53 204 204 0 0 1-7 49 197 197 0 0 1-16 44 115 115 0 0 1-8 15 26 26 0 0 0-2 4 257 257 0 0 1-19 25c-3 4-20 21-24 24a216 216 0 0 1-103 48 205 205 0 0 1-77 0 52 52 0 0 0-10-1c-1 0-1 29-1 266 0 244 0 265-2 269a66 66 0 0 1-8 16 50 50 0 0 1-27 18c-2 1-3 1-3 2 0 1-35 1-258 1-219 0-258 0-258-1z m513-34a17 17 0 0 0 9-10c1-3 1-24 1-271l0-268-3-1c-1-1-6-3-11-5a207 207 0 0 1-56-41 216 216 0 0 1-51-81 7 7 0 0 0-3-5c-1 0-40 0-91 0-101 0-93 0-98-6a17 17 0 0 1 6-26c3-1 4-1 89-1 78-1 86-1 86-2a77 77 0 0 0 0-12c-1-6-2-13-2-15l0-4-85 0c-84 0-85 0-88-2a17 17 0 0 1-1-30l3-1h86c84 0 86 0 88-2a11 11 0 0 0 2-5 178 178 0 0 1 10-38 10 10 0 0 0 1-4c0-1-7-1-268-2-244 0-267 0-270 1a17 17 0 0 0-10 9l-1 3 0 327 0 326 63 0 63 1 6 2a51 51 0 0 1 32 32l2 6 0 62c0 34 1 63 1 63s50 1 243 1c242 0 243 0 247-1z m-524-71c0-52 0-51-5-56s-4-5-56-5c-32 0-47 0-47 1 0 1 106 107 107 106a468 468 0 0 0 1-46z m639-496a182 182 0 0 0 39-9c1 0 3-1 5-2a186 186 0 0 0 82-62c2-3 5-6 5-7s3-4 5-8a217 217 0 0 0 12-25c0 0 1-3 2-6a210 210 0 0 0 10-41 249 249 0 0 0 0-43 219 219 0 0 0-13-51c0 0-2-4-4-8a175 175 0 0 0-22-34 244 244 0 0 0-28-28 206 206 0 0 0-44-27l-4-1a236 236 0 0 0-45-12 249 249 0 0 0-44 0 226 226 0 0 0-37 9 136 136 0 0 0-13 5c-1 0-5 3-11 5a180 180 0 0 0-33 21 186 186 0 0 0-55 77c-1 2-2 4-2 5a203 203 0 0 0-10 60 194 194 0 0 0 11 63c1 2 2 5 2 6s3 7 6 13a185 185 0 0 0 83 82c6 3 11 6 13 6s3 2 6 2a183 183 0 0 0 84 10z m-445 516a35 35 0 0 1-14-6c-1-1-23-20-28-25-1-1-7-7-15-14s-15-13-15-13-7-6-13-12c-16-14-43-38-47-42-2-1-6-5-9-8s-13-12-21-19-18-16-22-19-9-8-11-10c-5-5-14-13-28-25l-13-12-22-20c-26-23-27-23-31-29a35 35 0 0 1-4-26c2-8 5-12 26-36a41 41 0 0 1 13-12 34 34 0 0 1 19-3l7 0 1-105c0-96 0-105 1-109a50 50 0 0 1 28-32c10-5-5-5 206-5l191 1 6 2a50 50 0 0 1 30 26c4 9 4 2 4 117l1 105 7 0a34 34 0 0 1 26 8c3 4 24 27 27 31a33 33 0 0 1 6 20 36 36 0 0 1-11 25c-2 2-33 30-38 34l-4 4c-1 1-4 4-7 7l-6 5v60c0 58 0 61-2 65a64 64 0 0 1-3 7 38 38 0 0 1-12 12c-8 5-9 5-42 5a133 133 0 0 1-34-2 33 33 0 0 1-24-28c0-3 0-7 0-9 0-3-1-3-2-3a2 2 0 0 0-2 0 81 81 0 0 1-7 7c-4 4-8 8-10 9l-8 7c-2 2-6 5-7 7s-10 8-17 15-15 13-15 13-3 3-7 6c-25 23-25 23-34 25a23 23 0 0 1-14 1z m31-55c12-11 26-23 29-26s8-7 10-9 5-4 7-6 7-6 11-10c7-6 27-25 47-43 6-5 11-9 11-10s5-4 11-9 16-15 23-21 14-12 15-14l13-11c6-5 12-11 14-13s9-8 15-14 14-12 16-13c16-15 19-18 19-18 0-1 0-2-5-7-2-2-6-7-9-11a31 31 0 0 0-7-7 208 208 0 0 0-29 25c-7 6-16 14-22 20s-12 10-14 12c-5 5-34 30-39 35-4 3-8 7-10 9-4 4-24 22-33 29-3 3-6 6-6 6-2 1-28 25-32 28-2 2-10 9-18 16a319 319 0 0 1-36 31 20 20 0 0 1-11 0 153 153 0 0 1-26-21c-7-6-26-24-33-29-4-4-8-8-10-10s-10-9-18-16-19-17-25-22l-24-22c-7-6-13-11-14-12l-15-13c-20-19-27-25-28-25 0-1-6-6-14-13s-16-14-17-16a77 77 0 0 0-15-12 47 47 0 0 0-9 9c-3 4-8 10-10 12a23 23 0 0 0-3 4c0 1 11 10 33 31 10 9 20 17 21 19 11 9 21 18 32 28 4 3 10 9 14 12l10 10c9 8 18 15 18 16s2 2 4 3 7 6 10 9l17 15c6 5 17 15 25 23s22 19 30 26c15 14 14 13 19 17 1 2 6 6 10 9s8 8 10 9c9 9 12 11 13 11a317 317 0 0 0 25-21z m175-68c0-23 0-42 0-42a19 19 0 0 0-7 4l-11 10c-15 13-29 26-30 27-1 1-2 3-1 21 0 11 0 21 0 21s11 1 25 0l24 0z m-187-13c7-6 15-13 18-15s6-6 7-7 2-2 4-4 6-5 10-8 10-9 14-13 7-6 8-7 4-4 10-9c14-12 53-47 61-54 3-3 8-8 10-10s6-5 8-6 6-6 10-9 8-8 9-9 6-5 11-9l7-7v-116c0-113 0-116-1-119a18 18 0 0 0-10-9 320 320 0 0 0-54-1 398 398 0 0 0-51 1c0 0-1 30-1 67s0 68 0 71a54 54 0 0 1-7 20 50 50 0 0 1-20 19c-11 5-16 6-56 6a173 173 0 0 1-49-3 51 51 0 0 1-33-37c-1-3-1-26-2-74l0-70-51 0-52 0-3 2a15 15 0 0 0-8 8c-2 3-2 4-2 119v116l8 7c4 3 8 8 10 9 4 4 23 20 39 35 8 7 16 14 17 15s6 6 10 9 10 9 13 12c8 7 11 10 25 22 7 6 15 13 18 16s9 8 14 13 9 8 11 9 4 4 7 7 7 6 10 9 6 5 7 6c6 6 10 9 11 9a81 81 0 0 0 13-11z m29-265a21 21 0 0 0 5-5l2-3v-139l-49 0c-48 0-49 0-49 1-1 1-1 22-1 69l0 67 2 3a18 18 0 0 0 9 9c2 0 20 0 40 0l38 0z m-316-232a15 15 0 0 1-9-16 16 16 0 0 1 14-15c6-1 233-1 238 0a17 17 0 0 1 12 8 12 12 0 0 1 2 8 12 12 0 0 1-2 9 21 21 0 0 1-6 5l-3 2-121 1-122 0z m3-65a18 18 0 0 1-10-9 13 13 0 0 1-2-8 15 15 0 0 1 8-13l3-2h244l4 2a15 15 0 0 1 7 13 13 13 0 0 1-2 8 19 19 0 0 1-11 9c-6 1-236 1-241 0z m678 133a51 51 0 0 1-38-37 97 97 0 0 1-2-25 77 77 0 0 0 0-19 77 77 0 0 0-20-1 98 98 0 0 1-25-2 50 50 0 0 1-36-34 42 42 0 0 1-1-14 38 38 0 0 1 1-16 51 51 0 0 1 38-33 122 122 0 0 1 23-1 75 75 0 0 0 19-1 73 73 0 0 0 1-19 70 70 0 0 1 5-35 50 50 0 0 1 37-28 65 65 0 0 1 24 2 50 50 0 0 1 33 37 128 128 0 0 1 1 24 73 73 0 0 0 1 19 73 73 0 0 0 19 1 128 128 0 0 1 24 1 50 50 0 0 1 37 33 65 65 0 0 1 2 24 50 50 0 0 1-29 37 70 70 0 0 1-34 5 73 73 0 0 0-19 1 75 75 0 0 0-1 19 122 122 0 0 1-1 23 51 51 0 0 1-33 37 77 77 0 0 1-26 2z m19-35a18 18 0 0 0 7-10c1-1 1-14 1-30 0-31 0-31 5-36 5-5 6-5 37-5h28l4-2a17 17 0 0 0 9-18 13 13 0 0 0-4-7c-5-6-6-6-37-6a277 277 0 0 1-30-1 19 19 0 0 1-11-9c-1-3-1-5-1-31 0-32 0-33-6-38a14 14 0 0 0-11-4 14 14 0 0 0-10 4c-6 5-6 5-6 37 0 31 0 32-5 37-5 5-5 5-36 5-16 0-29 0-30 1a19 19 0 0 0-10 7c-2 2-2 4-2 9s0 6 2 9a19 19 0 0 0 10 7c1 0 14 0 29 0a274 274 0 0 1 30 1 20 20 0 0 1 11 11 285 285 0 0 1 1 31c0 29 0 30 3 34a20 20 0 0 0 8 6 30 30 0 0 0 7 0 13 13 0 0 0 7-2z" horiz-adv-x="1000" />

<glyph glyph-name="plus" unicode="&#xe841;" d="M500 850c-276 0-500-224-500-500s224-500 500-500 500 224 500 500-224 500-500 500z m0-962c-254 0-461 208-461 462s207 462 461 462 462-207 462-462-207-462-462-462z m240 481h-221v212c0 10-8 19-19 19s-19-9-19-19v-212h-221c-11 0-20-8-20-19s9-19 20-19h221v-231c0-11 8-19 19-19s19 8 19 19v231h221c11 0 20 8 20 19s-9 19-20 19z" horiz-adv-x="1000" />

<glyph glyph-name="plus-o" unicode="&#xe842;" d="M500 850c-276 0-500-224-500-500s224-500 500-500 500 224 500 500-224 500-500 500z m240-538h-201v-212c0-21-18-38-39-38s-38 17-38 38v212h-202c-22 0-39 17-39 38s17 39 39 39h202v192c0 21 17 38 38 38s39-17 39-38v-192h201c22 0 39-18 39-39s-17-38-39-38z" horiz-adv-x="1000" />

<glyph glyph-name="user-t" unicode="&#xe843;" d="M1000 350c0 276-224 500-500 500s-500-224-500-500c0-146 63-277 162-368l0-1 16-13c1-1 2-2 3-3 9-7 18-14 27-20 3-3 6-5 9-7 10-6 20-13 30-19 2-1 4-2 6-4 12-6 23-12 35-18 0 0 1 0 2-1 38-17 79-30 121-38 1 0 2 0 3-1 14-2 27-4 40-5 2 0 4 0 5 0 14-1 27-2 41-2 14 0 27 1 40 2 2 0 4 0 6 0 13 1 26 3 39 5 1 1 2 1 4 1 41 7 81 20 119 37 1 1 3 2 4 2 11 5 22 11 33 17 3 2 5 3 8 5 10 6 19 12 29 18 3 2 6 5 10 7 8 6 15 12 23 18 2 1 3 3 5 4l17 14-1 0c101 92 164 224 164 370z m-964 0c0 256 208 464 464 464s464-208 464-464c0-138-61-262-156-347-6 4-11 7-17 10l-154 77c-13 7-22 21-22 36v54c4 5 7 10 11 15 20 28 36 59 48 93 23 11 38 34 38 60v64c0 16-6 31-16 44v84c0 10 4 63-35 107-33 38-87 58-161 58s-128-20-161-58c-39-44-35-97-34-107v-84c-11-12-17-28-17-44v-64c0-20 9-39 25-51 15-58 45-102 56-116v-53c0-15-8-29-21-36l-144-78c-4-3-9-5-13-9-95 85-155 208-155 345z" horiz-adv-x="1000" />

<glyph glyph-name="play-t" unicode="&#xe844;" d="M859 370l-691 476c-7 5-16 5-24 1-8-4-13-12-13-21v-952c0-9 5-17 13-21 3-2 7-3 11-3 5 0 9 1 13 4l691 476c6 5 10 12 10 20s-4 15-10 20z m-680-451v862l624-431-624-431z" horiz-adv-x="1000" />

<glyph glyph-name="print" unicode="&#xe845;" d="M930 639h-187v105c0 12-10 21-21 21h-444c-11 0-21-9-21-21v-105h-187c-38 0-70-32-70-71v-337c0-39 32-71 70-71h187v-204c0-12 10-21 21-21h444c11 0 21 9 21 21v204h187c38 0 70 32 70 71v337c0 39-32 71-70 71z m-187-43h50v-59h-50v59z m-443 127h401v-186h-401v186z m-93-127h50v-59h-50v59z m494-619h-401v280h401v-280z m257 254h0c0-16-13-28-28-28h-187v54h39c11 0 21 9 21 21s-10 21-21 21h-60-444-60c-11 0-21-10-21-21s10-21 21-21h39v-54h-187c-15 0-28 12-28 28v337c0 16 13 28 28 28h94v-80c0-12 10-21 21-21h630c11 0 21 9 21 21v80h94c15 0 28-12 28-28v-337z m-464-136h-99c-12 0-21-9-21-21 0-12 9-21 21-21h99c12 0 21 9 21 21 0 12-9 21-21 21z m111 108h-210c-12 0-21-10-21-22 0-11 9-21 21-21h210c12 0 21 10 21 21 0 12-9 22-21 22z" horiz-adv-x="1000" />

<glyph glyph-name="print-o" unicode="&#xe846;" d="M833 317c46 0 84 37 84 83s-38 83-84 83-83-37-83-83 37-83 83-83z m0 133c28 0 50-22 50-50s-22-50-50-50-50 22-50 50 23 50 50 50z m-133-317h-400c-9 0-17-7-17-16s8-17 17-17h400c9 0 17 8 17 17s-8 16-17 16z m0-83h-400c-9 0-17-7-17-17s8-16 17-16h400c9 0 17 7 17 16s-8 17-17 17z m150 517v283h-700v-283h-150v-567h100v-50h50v-100h700v100h50v50h100v567h-150z m-667 250h634v-250h-634v250z m-33-284h700 117v-266h-934v266h117z m-17-550v34 16 67c0 9-7 17-16 17s-17-8-17-17v-67h-67v200h117v-250h-17z m684-100h-634v67 283h634v-283-67z m83 150v67c0 9-7 17-17 17s-16-8-16-17v-67-16-34h-17v250h117v-200h-67z" horiz-adv-x="1000" />

<glyph glyph-name="print-t" unicode="&#xe847;" d="M828 645h-26v57c0 82-67 148-148 148h-310c-82 0-148-66-148-148v-57h-23c-82 0-148-66-148-148v-238c0-81 66-148 148-148h23v-187c0-41 33-74 74-74h458c40 0 74 33 74 74v187h26c81 0 147 67 147 148v238c0 82-66 148-147 148z m-576 57c0 51 41 92 92 92h310c50 0 91-41 91-92v-57h-493v57z m494-779c0-9-8-18-18-18h-458c-10 0-18 9-18 18v309h494v-309z m173 336c0-51-41-92-91-92h-26v65h37c15 0 28 13 28 28s-13 28-28 28h-684c-16 0-28-12-28-28s12-28 28-28h41v-65h-23c-51 0-92 41-92 92v238c0 51 41 92 92 92h655c50 0 91-41 91-92v-238z m-599-164h356c15 0 28 12 28 28s-13 28-28 28h-356c-16 0-28-13-28-28s12-28 28-28z m358-59h-356c-16 0-28-12-28-28s12-28 28-28h356c15 0 28 13 28 28s-13 28-28 28z m149 499h-57c-15 0-28-12-28-28s13-28 28-28h57c15 0 28 13 28 28s-13 28-28 28z" horiz-adv-x="1000" />

<glyph glyph-name="basket" unicode="&#xe848;" d="M2 791q8 20 27 29t38 4l150-48q32-10 35-43l10-84 686-77q23-5 35-22t10-38l-43-238q-8-43-49-43l-608 0-11-69 578 0q21 0 36-14t15-36q-2-22-17-37t-34-14l-641 0q-25 2-39 19t-12 41l28 149-41 418-119 39q-45 17-34 64z m217-839q0 32 24 56t55 23 56-23 23-56-23-55-56-24-55 24-24 55z m469 0q0 32 23 56t56 23 56-23 23-56-23-55-56-24-56 24-23 55z" horiz-adv-x="993" />

<glyph glyph-name="garden" unicode="&#xe849;" d="M983 450c10 0 17 8 17 17l0 133c0 10-7 17-17 17l-50 0 0 117c0 4-1 7-3 10l-84 100c-6 7-17 8-24 2-1-1-1-1-1-2l-84-100c-2-3-4-6-4-10l0-117-133 0 0 117c0 4-1 7-4 10l-83 100c-7 7-17 8-25 2 0-1 0-1-1-2l-83-100c-3-3-4-6-4-10l0-117-133 0 0 117c0 4-2 7-4 10l-83 100c-7 7-18 8-25 2 0-1-1-1-1-2l-83-100c-3-3-4-6-4-10l0-117-50 0c-9 0-17-7-17-17l0-133c0-9 8-17 17-17l50 0 0-200-50 0c-9 0-17-7-17-16l0-134c0-9 8-16 17-16l50 0 0-117c0-4 1-8 4-11l83-100c6-7 16-8 23-2 1 1 2 1 3 2l83 100c2 3 4 7 4 11l0 117 133 0 0-117c0-4 1-8 4-11l83-100c6-7 17-8 24-2 0 1 1 1 2 2l83 100c3 3 4 7 4 11l0 117 133 0 0-117c0-4 2-8 4-11l84-100c5-7 16-8 23-2 1 1 2 1 2 2l84 100c2 3 3 7 3 11l0 117 50 0c10 0 17 7 17 16l0 134c0 9-7 16-17 16l-50 0 0 200z m-16 134l0-100-34 0 0 100z m-367-134l133 0 0-200-133 0z m133 134l0-100-133 0 0 100z m-466-134l133 0 0-200-133 0z m133 134l0-100-133 0 0 100z m-367-100l0 100 34 0 0-100z m0-367l0 100 34 0 0-100z m200-144l-66-80-67 80 0 755 67 80 66-80z m34 144l0 100 133 0 0-100z m300-144l-67-80-67 80 0 755 67 80 67-80z m33 144l0 100 133 0 0-100z m300-144l-67-80-66 80 0 755 66 80 67-80z m67 244l0-100-34 0 0 100z m0 0m-800 367c-28 0-50-23-50-50 0-28 22-50 50-50 27 0 50 22 50 50 0 27-23 50-50 50z m0-67c-9 0-17 7-17 17 0 9 8 16 17 16 9 0 16-7 16-16 0-10-7-17-16-17z m0 0m333 67c-28 0-50-23-50-50 0-28 22-50 50-50 28 0 50 22 50 50 0 27-22 50-50 50z m0-67c-9 0-17 7-17 17 0 9 8 16 17 16 9 0 17-7 17-16 0-10-8-17-17-17z m0 0m333 67c-27 0-50-23-50-50 0-28 23-50 50-50 28 0 50 22 50 50 0 27-22 50-50 50z m0-67c-9 0-16 7-16 17 0 9 7 16 16 16 10 0 17-7 17-16 0-10-7-17-17-17z m0 0m-666-300c-28 0-50-22-50-50 0-28 22-50 50-50 27 0 50 22 50 50 0 28-23 50-50 50z m0-67c-9 0-17 8-17 17 0 9 8 17 17 17 9 0 16-8 16-17 0-9-7-17-16-17z m0 0m333 67c-28 0-50-22-50-50 0-28 22-50 50-50 28 0 50 22 50 50 0 28-22 50-50 50z m0-67c-9 0-17 8-17 17 0 9 8 17 17 17 9 0 17-8 17-17 0-9-8-17-17-17z m0 0m333 67c-27 0-50-22-50-50 0-28 23-50 50-50 28 0 50 22 50 50 0 28-22 50-50 50z m0-67c-9 0-16 8-16 17 0 9 7 17 16 17 10 0 17-8 17-17 0-9-7-17-17-17z m0 0" horiz-adv-x="1000" />

<glyph glyph-name="list-view" unicode="&#xe84a;" d="M1000 850v-160h-440v160h440z m0-280v-160h-440v160h440z m0-280v-160h-440v160h440z m-560 560v-440h-440v440h440z m-320-320h200v200h-200v-200z m880-520v-160h-440v160h440z m-560 280v-440h-440v440h440z m-320-320h200v200h-200v-200z" horiz-adv-x="1000" />

<glyph glyph-name="pin-o" unicode="&#xe84b;" d="M911 574q0-61-31-113t-84-82q2-19 2-27 0-138-98-237t-237-98q-103 0-186 56l-259-170 170 259q-60 88-60 190 0 138 98 236t237 99q6 0 18-2t13-2q30 52 81 83t113 31q92 0 158-66t65-157z m-447-445q92 0 157 65t65 157q-26 0-57 8l-88-88q-32-32-78-32t-79 32-32 79 32 80l89 89q-9 31-9 55l0 1-1 0q-92 0-157-66t-66-158 66-157 158-65z m224 333q45 0 78 33t33 78-33 79-78 33-79-33-33-79 33-78 79-33z" horiz-adv-x="928" />

<glyph glyph-name="apartment" unicode="&#xe84c;" d="M984-118h-65v115c46 9 81 55 81 111 0 62-43 113-97 113s-97-51-97-113c0-56 35-102 81-111v-52l-23 15a16 16 0 0 1-18-27l41-27v-24h-97v887a16 16 0 0 1-16 17h-113v48a16 16 0 0 1-16 16h-290a16 16 0 0 1-16-16v-48h-113a16 16 0 0 1-16-17v-887h-97v115c46 9 81 55 81 111 0 62-44 113-97 113s-97-51-97-113c0-56 35-102 81-111v-52l-24 15a16 16 0 1 1-18-27l42-27v-24h-65a16 16 0 1 1 0-32h968a16 16 0 0 1 0 32z m-887 242a16 16 0 0 1-16-16v-78a80 80 0 0 0-49 78c0 45 29 81 65 81s64-37 64-81a80 80 0 0 0-48-78v78a16 16 0 0 1-16 16z m274 694h258v-33h-258z m113-936h-16v129h16z m48 0h-16v129h16z m226 0h-193v145a16 16 0 0 1-17 17h-96a16 16 0 0 1-16-17v-145h-194v774h516z m0 807h-516v64h516z m145-565a16 16 0 0 1-16-16v-78a80 80 0 0 0-48 78c0 45 29 81 64 81s65-37 65-81a80 80 0 0 0-49-78v78a16 16 0 0 1-16 16z m-355 81h-96a16 16 0 0 1-17-16v-97a16 16 0 0 1 17-16h96a16 16 0 0 1 17 16v97a16 16 0 0 1-17 16z m-16-97h-64v65h64z m-145 97h-97a16 16 0 0 1-16-16v-97a16 16 0 0 1 16-16h97a16 16 0 0 1 16 16v97a16 16 0 0 1-16 16z m-16-97h-65v65h65z m339 97h-97a16 16 0 0 1-16-16v-97a16 16 0 0 1 16-16h97a16 16 0 0 1 16 16v97a16 16 0 0 1-16 16z m-16-97h-65v65h65z m-307-64h-97a16 16 0 0 1-16-16v-97a16 16 0 0 1 16-16h97a16 16 0 0 1 16 16v97a16 16 0 0 1-16 16z m-16-97h-65v64h65z m339 97h-97a16 16 0 0 1-16-16v-97a16 16 0 0 1 16-16h97a16 16 0 0 1 16 16v97a16 16 0 0 1-16 16z m-16-97h-65v64h65z m-146 403h-96a16 16 0 0 1-17-16v-97a16 16 0 0 1 17-16h96a16 16 0 0 1 17 16v97a16 16 0 0 1-17 16z m-16-97h-64v65h64z m-145 97h-97a16 16 0 0 1-16-16v-97a16 16 0 0 1 16-16h97a16 16 0 0 1 16 16v97a16 16 0 0 1-16 16z m-16-97h-65v65h65z m339 97h-97a16 16 0 0 1-16-16v-97a16 16 0 0 1 16-16h97a16 16 0 0 1 16 16v97a16 16 0 0 1-16 16z m-16-97h-65v65h65z m-146 242h-96a16 16 0 0 1-17-16v-97a16 16 0 0 1 17-16h96a16 16 0 0 1 17 16v97a16 16 0 0 1-17 16z m-16-97h-64v65h64z m-145 97h-97a16 16 0 0 1-16-16v-97a16 16 0 0 1 16-16h97a16 16 0 0 1 16 16v97a16 16 0 0 1-16 16z m-16-97h-65v65h65z m339 97h-97a16 16 0 0 1-16-16v-97a16 16 0 0 1 16-16h97a16 16 0 0 1 16 16v97a16 16 0 0 1-16 16z m-16-97h-65v65h65z m-146 242h-96a16 16 0 0 1-17-16v-97a16 16 0 0 1 17-16h96a16 16 0 0 1 17 16v97a16 16 0 0 1-17 16z m-16-96h-64v64h64z m-145 96h-97a16 16 0 0 1-16-16v-97a16 16 0 0 1 16-16h97a16 16 0 0 1 16 16v97a16 16 0 0 1-16 16z m-16-96h-65v64h65z m339 96h-97a16 16 0 0 1-16-16v-97a16 16 0 0 1 16-16h97a16 16 0 0 1 16 16v97a16 16 0 0 1-16 16z m-16-96h-65v64h65z" horiz-adv-x="1000" />

<glyph glyph-name="apartment-o" unicode="&#xe84d;" d="M177 281h90a22 22 0 0 1 21 21v86a22 22 0 0 1-21 21h-90a22 22 0 0 1-21-21v-86a22 22 0 0 1 21-21z m22 85h46v-42h-46z m0 0m-22-257h90a22 22 0 0 1 21 22v85a22 22 0 0 1-21 21h-90a22 22 0 0 1-21-21v-85a22 22 0 0 1 21-22z m22 85h46v-42h-46z m0 0m232 289h94a22 22 0 0 1 22 22v89a22 22 0 0 1-22 22h-94a22 22 0 0 1-21-22v-89a22 22 0 0 1 21-22z m22 90h50v-46h-50z m0 0m145-90h93a22 22 0 0 1 22 22v89a22 22 0 0 1-22 22h-93a22 22 0 0 1-22-22v-89a22 22 0 0 1 22-22z m21 90h51v-46h-51z m0 0m-92-146h-94a22 22 0 0 1-21-22v-89a22 22 0 0 1 21-22h94a22 22 0 0 1 22 22v89a22 22 0 0 1-22 22z m-22-89h-50v46h50z m0 0m188 89h-93a22 22 0 0 1-22-22v-89a22 22 0 0 1 22-22h93a22 22 0 0 1 22 22v89a22 22 0 0 1-22 22z m-21-89h-51v46h51z m0 0m316-110a489 489 0 0 1-63 145c-16 24-37 50-63 50h0c-22 0-40-18-56-39v339h6a60 60 0 0 1 55 63 60 60 0 0 1-55 64h-502a60 60 0 0 1-55-64 60 60 0 0 1 55-63h6v-98h-259a62 62 0 0 1-57-65 65 65 0 0 1 42-63v-603h-8a22 22 0 0 1 0-44h849a22 22 0 0 1 1 44v105a116 116 0 0 1 103 70c22 51 13 115 1 159z m-931 354h259v-44h-259a22 22 0 0 0 0 44z m259-688h-236v601h236z m220 0h-67v228h67z m105 0h-67v228h67z m127 0h-88v250a21 21 0 0 1-20 22h-210a21 21 0 0 1-19-22v-250h-77v829h131a21 21 0 0 1 19 22 21 21 0 0 1-19 22h-175a19 19 0 0 0-17 19 19 19 0 0 0 18 20h501a19 19 0 0 0 17-20 19 19 0 0 0-17-19l-175 0h0a21 21 0 0 1-19-22 21 21 0 0 1 19-22l131 0v-405a444 444 0 0 1-41-153c-3-58 11-104 41-133z m78 0h-40v118a86 86 0 0 1 40-13z m107 194a78 78 0 0 0-69-46v92l29 31a24 24 0 0 1 0 30 17 17 0 0 1-27 1l-2-2v70a19 19 0 1 1-38 0v-40l-2 2a17 17 0 0 1-27-1 24 24 0 0 1 1-30l28-31v-29l-15 13a18 18 0 0 1-27-5 24 24 0 0 1 5-31l37-30v-40a82 82 0 0 0-71 49c-23 54-3 141 26 205l1 1a344 344 0 0 0 26 48c19 28 29 34 34 34h0c5 0 15-6 33-33 43-64 87-189 57-258z m0 0m-392 678h0a22 22 0 1 1 0-43h0a22 22 0 1 1 0 43z m0 0" horiz-adv-x="1000" />

<glyph glyph-name="3d" unicode="&#xe84e;" d="M420-68c-217 18-381 112-381 218 0 25 9 49 26 72 7 9 5 21-4 28-8 6-21 4-27-4-23-31-34-63-34-96 0-65 44-126 124-173 75-45 179-75 292-84 1 0 1 0 2 0 10 0 18 7 19 17 1 11-7 21-17 22z m85-4l-1 0c-11 0-20-9-20-19 0-11 9-20 20-20 0 0 0 0 0 0l1 0c11 0 19 9 19 20 0 10-8 19-19 19z m469 306c10 1 19 9 19 20 0 11-9 19-20 19h-39c-11 0-20-8-20-19v-40c0-10 9-19 20-19 6 0 11 2 14 6 9-17 13-34 13-51 0-106-164-200-381-218-10-1-18-11-17-22 1-10 9-17 19-17 1 0 1 0 2 0 113 9 217 39 292 84 80 47 124 108 124 173 0 29-9 57-26 84z m-474 418c-11 0-19-9-19-20v-42c0-11 8-20 19-20s20 9 20 20v42c0 11-9 20-20 20z m336-32l-326 188c-6 4-14 4-20 0l-326-188c-6-4-10-10-10-17v-377c0-7 4-13 10-17l326-188c3-2 7-3 10-3s7 1 10 3l326 188c6 4 10 10 10 17v377c0 7-4 13-10 17z m-355-548l-268 154 18 11c10 5 13 17 7 26-5 10-17 13-26 8l-19-11v309l268-155-34-19c-9-5-12-17-7-27 4-6 10-9 17-9 3 0 7 1 10 2l34 20v-309z m19 434c-11 0-19-9-19-20v-38l-268 155 268 155v-23c0-10 8-19 19-19s20 9 20 19v23l267-155-267-155v38c0 11-9 20-20 20z m307-246l-19 11c-9 5-21 2-26-8-6-9-2-21 7-26l18-11-267-154v309l33-20c3-1 7-2 10-2 7 0 13 3 17 9 5 10 2 22-7 27l-34 19 268 155v-309z m-108 62l-37 22c-9 5-21 2-27-8-5-9-2-21 8-26l37-22c3-1 6-2 9-2 7 0 14 3 17 10 6 9 2 21-7 26z m-334 14c-6 10-18 13-27 8l-37-22c-9-5-13-17-7-26 4-7 10-10 17-10 3 0 6 1 10 2l36 22c10 5 13 17 8 26z" horiz-adv-x="1000" />

<glyph glyph-name="star" unicode="&#xe84f;" d="M202-126c-4 0-7 1-10 3-6 4-9 11-8 17l56 323-235 228c-4 5-6 12-4 19 2 6 8 11 14 12l324 47 145 293c3 7 9 10 16 10l0 0c7 0 13-3 16-10l145-293 324-47c6-1 12-6 14-12 2-7 1-14-4-19l-235-228 56-323c1-6-2-13-7-17-6-4-13-5-19-1l-290 152-290-152c-2-2-5-2-8-2z m-146 572l215-210c5-4 7-10 6-16l-51-296 266 140c5 3 11 3 16 0l266-140-51 296c-1 6 1 12 6 16l215 210-298 43c-5 1-10 5-13 10l-133 269-133-269c-2-6-8-9-13-10l-298-43z" horiz-adv-x="1000" />

<glyph glyph-name="star-o" unicode="&#xe850;" d="M999 467c-4 10-12 17-23 19l-312 44-140 282c-5 9-14 15-25 15l0 0c-10 0-20-6-25-15l-138-283-312-47c-11-1-19-8-23-18s0-22 8-29l226-219-52-311c-2-10 2-21 11-27 4-4 10-5 16-5 4 0 9 1 13 3l278 148 280-147c4-2 8-3 12-3l0 0c16 0 28 13 28 28 0 2 0 4-1 6l-54 309 225 221c8 7 11 19 8 29z m-282-220c-6-7-9-16-7-25l47-269-243 126c-8 5-18 4-26 0l-242-128 46 270c1 9-2 18-8 25l-196 190 270 40c9 2 17 7 21 15l120 246 122-245c4-8 12-14 21-15l271-39-196-191z" horiz-adv-x="1000" />

<glyph glyph-name="star-t" unicode="&#xe851;" d="M999 464c-2 6-8 11-14 12l-324 47-145 293c-3 7-9 10-16 10s-13-3-16-10l-145-293-324-47c-6-1-12-6-14-12-2-7 0-14 4-19l235-228-56-323c-1-6 2-13 8-17 5-4 12-5 18-1l290 152 290-152c2-2 5-2 8-2 4 0 7 1 11 3 5 4 8 11 7 17l-56 323 235 228c5 5 6 12 4 19z" horiz-adv-x="1000" />

<glyph glyph-name="next" unicode="&#xe852;" d="M313-90c-6-7-14-10-22-10s-17 3-23 10c-12 12-12 32 0 45l396 395-396 395c-12 13-12 33 0 45 13 13 33 13 45 0l418-417c12-13 12-33 0-45l-418-418z" horiz-adv-x="1000" />

<glyph glyph-name="down" unicode="&#xe853;" d="M940 582c-12 12-32 12-45 0l-395-396-396 396c-12 12-33 12-45 0-12-13-12-33 0-45l418-418c6-6 14-9 22-9 8 0 17 3 23 9l418 418c13 12 13 32 0 45z" horiz-adv-x="1000" />

<glyph glyph-name="left" unicode="&#xe854;" d="M687-90c6-7 14-10 22-10s17 3 23 10c12 12 12 32 0 45l-396 395 396 395c12 13 12 33 0 45s-33 13-45 0l-419-417c-12-13-12-33 0-45l419-418z" horiz-adv-x="1000" />

<glyph glyph-name="right-quote" unicode="&#xe855;" d="M692 290v560h539v-568c0-384-347-432-347-432l-46 112s154 24 185 152c31 96-31 176-31 176h-300z m-692 0v560h539v-568c0-384-346-432-346-432l-47 112s154 24 185 152c31 96-31 176-31 176h-300z" horiz-adv-x="1231" />

<glyph glyph-name="left-quote" unicode="&#xe856;" d="M539 410v-560l-539 0 0 568c0 384 347 432 347 432l46-112s-154-24-185-152c-31-96 31-176 31-176h300z m692 0v-560l-539 0 0 568c0 384 346 432 346 432l46-112s-154-24-184-152c-31-96 30-176 30-176h301z" horiz-adv-x="1231" />

<glyph glyph-name="building" unicode="&#xe857;" d="M1000 689v32c0 18-14 32-32 32h-103l-49 97h-632l-49-97h-103c-17 0-32-14-32-32v-32c0-18 15-32 32-32v-323h-32v-484h968v355c18 0 32 14 32 32v32c0 18-14 33-32 33v355c18 0 32 14 32 32z m-796 129h593l32-65h-658z m-172-97h936l0-32h-936z m613-419v355h32v-355z m-161-323h64v-32h-64z m0 161h64v-32h-64z m-97 194v323h226v-355h-129v32z m-32 323v-323h-32v323z m-290 0h225v-323h-225z m387-355v-33h-420v33z m-226-194v-226h-129v291h129v-33h32v33h129v-291h-129v226z m161 97h-290v32h290z m-355 32h33v-355h-33z m387-355v355h33v-355z m517 0h-452v32h97v97h-97v65h97v97h-97v32h452z m32 355h-484v32h484z m-97 65h-32v32h32z m-64 0h-33v32h33z m129 0h-33v64h-161v-64h-32v355h226z m0 0m-33-129h-129v-97h129z m-32-65h-64v32h64z m0 0m32-97h-129v-97h129z m-32-64h-64v32h64z m0 0m-129 226h-129v-97h129z m-32-65h-65v32h65z m0 0m32-97h-129v-97h129z m-32-64h-65v32h65z m0 0m-613 677v-97h161v97z m32-32h32v-32h-32z m97-32h-32v32h32z m0 0m-129-162h161v97h-161z m129 33h-32v32h32z m-97 32h32v-32h-32z m0 0m774 161h-161v-97h161z m-129-32h33v-32h-33z m97-32h-32v32h32z m0 0m32-65h-161v-97h161z m-129-32h33v-32h-33z m97-32h-32v32h32z m0 0m-290 193h-162v-97h162z m-129-32h32v-32h-32z m96-32h-32v32h32z m0 0m33-65h-162v-97h162z m-129-32h32v-32h-32z m96-32h-32v32h32z m0 0" horiz-adv-x="1000" />

<glyph glyph-name="ruler" unicode="&#xe858;" d="M323 341c-4 3-9 4-13 2-5-2-8-6-8-11v-217c0-7 5-13 12-13h218c5 0 9 3 11 8 2 5 1 10-3 13l-217 218z m3-214v175l176-175h-176z m615 648l-64 63c-4 5-12 5-17 0l-368-368c-1-1-2-2-3-4l-40-101-162 162 29 29c4 5 4 13 0 18-5 4-13 4-18 0l-29-30-49 49v245c0 7-5 12-12 12h-140c-7 0-13-5-13-12v-976c0-7 6-12 13-12h140c7 0 12 5 12 12v134h563l34-34c2-2 5-4 9-4s6 2 8 4c5 5 5 12 0 17l-366 367 101 40c1 1 3 2 4 3l368 368c2 3 4 6 4 9s-2 6-4 9z m-745-901h-116v22h21c7 0 12 6 12 12s-5 13-12 13h-21v38h21c7 0 12 6 12 13s-5 12-12 12h-21v38h21c7 0 12 6 12 13s-5 12-12 12h-21v39h21c7 0 12 5 12 12s-5 12-12 12h-21v39h21c7 0 12 5 12 12s-5 12-12 12h-21v39h21c7 0 12 5 12 12s-5 12-12 12h-21v39h21c7 0 12 5 12 12s-5 12-12 12h-21v39h21c7 0 12 5 12 12s-5 12-12 12h-21v39h21c7 0 12 5 12 12s-5 12-12 12h-21v39h21c7 0 12 5 12 12s-5 12-12 12h-21v39h21c7 0 12 5 12 12s-5 12-12 12h-21v39h21c7 0 12 6 12 12s-5 13-12 13h-21v38h21c7 0 12 6 12 12s-5 13-12 13h-21v38h21c7 0 12 6 12 12s-5 13-12 13h-21v38h21c7 0 12 6 12 13s-5 12-12 12h-21v22h116v-952z m24 147v538l60-60-35-35c-5-5-5-12 0-17 3-3 6-4 9-4s6 1 8 4l35 35 28-28-35-34c-5-5-5-13 0-18 2-2 5-3 8-3s7 1 9 3l35 35 27-27-35-35c-4-5-4-13 0-17 3-3 6-4 9-4s6 1 9 4l34 35 28-28-35-35c-5-4-5-12 0-17 2-2 5-4 9-4s6 2 8 4l35 35 27-27-35-35c-4-5-4-13 0-18 3-2 6-3 9-3s6 1 9 3l35 35 27-27-35-35c-5-5-5-12 0-17 2-2 6-4 9-4s6 2 8 4l35 35 28-28-35-34c-5-5-5-13 0-18 2-2 5-3 8-3s7 1 9 3l35 35 27-27-35-35c-5-5-5-13 0-17 3-3 6-4 9-4 3 0 6 1 9 4l34 35 28-28-35-35c-5-4-5-12 0-17 2-2 5-3 9-3s6 1 8 3l35 35 27-27-35-35c-4-5-4-13 0-17 3-3 6-4 9-4s6 1 9 4l35 34 59-59h-538z m330 409l304 304 15-14-305-305-14 15z m-18 17l-14 15 305 304 14-14-305-305z m-27-7l38-38-63-24 25 62z m381 297l-46 46 29 29 46-46-29-29z m-22-788c-5 5-12 5-17 0s-5-12 0-17l38-38c2-2 5-3 8-3 3 0 7 1 9 3 5 5 5 13 0 18l-38 37z m68-67c-5 4-13 4-17 0-5-5-5-13 0-18l0 0c3-3 6-4 9-4 3 0 6 1 9 4 4 4 4 12 0 17l-1 1z m-392 904c3 0 6 1 9 3l2 2c5 5 5 13 0 18-5 4-13 4-18 0l-2-2c-4-5-4-13 0-18 3-2 6-3 9-3z m-68-68c4 0 7 1 9 4l38 37c5 5 5 13 0 18-5 5-13 5-17 0l-38-38c-5-5-5-13 0-17 2-3 5-4 8-4z m-67-68c3 0 6 1 8 4l38 38c5 4 5 12 0 17-5 5-12 5-17 0l-38-38c-5-5-5-12 0-17 2-3 6-4 9-4z m-68-67c3 0 6 1 9 3l37 38c5 5 5 12 0 17-4 5-12 5-17 0l-38-38c-4-4-4-12 0-17 3-2 6-3 9-3z" horiz-adv-x="1000" />

<glyph glyph-name="ruler-o" unicode="&#xe859;" d="M7 849a12 12 0 0 0 14-2l974-977a12 12 0 0 0-8-20h-975a12 12 0 0 0-12 12v976a12 12 0 0 0 7 11z m951-975l-934 935v-92h68a12 12 0 0 0 0-25h-68v-63h28a12 12 0 0 0 0-24h-28v-63h28a12 12 0 0 0 0-24h-28v-64h68a12 12 0 0 0 0-24h-68v-63h28a12 12 0 0 0 0-24h-28v-63h28a12 12 0 0 0 0-24h-28v-64h68a12 12 0 0 0 0-24h-68v-63h28a12 12 0 0 0 0-24h-28v-63h28a12 12 0 0 0 0-25h-28v-63h68a12 12 0 0 0 0-24h-68v-32z m0 0m-809 617a12 12 0 0 0 14-3l473-473a12 12 0 0 0-9-21h-473a12 12 0 0 0-12 12v474a12 12 0 0 0 7 11z m17-473h432l-432 432z m0 0m673 153a98 98 0 0 0-71 29l-384 384v1a12 12 0 0 0-2 2 11 11 0 0 0-1 2v0l-53 177a12 12 0 0 0 15 15l52-16 124-37a26 26 0 0 0 4-3l320-319 43-44 23-22a99 99 0 0 0-70-169z m-5 209l-53-53-53-53 27-27 106 107z m-435 359a62 62 0 0 0-29-28l29-95 94 94z m117-40l-45-45 302-301 44 44z m195-408l45 45-302 301-44-44z m-349 444a37 37 0 0 1 13 11l-17 5z m530-412l-14 13-106-106 13-14a75 75 0 0 1 107 107z m0 0" horiz-adv-x="999" />

<glyph glyph-name="list" unicode="&#xe85a;" d="M0 629h221v221h-221z m59 162h104v-104h-104z m0 0m233 59v-221h708v221z m649-163h-591v104h591z m0 0m-941-345h221v221h-221z m59 162h104v-104h-104z m0 0m233-162h708v221h-708z m58 162h591v-104h-591z m0 0m-350-449h221v221h-221z m59 162h104v-104h-104z m0 0m233-162h708v221h-708z m58 162h591v-104h-591z m0 0" horiz-adv-x="1000" />

<glyph glyph-name="list-o" unicode="&#xe85b;" d="M0 850h221v-221h-221z m0 0m292 0h708v-221h-708z m0 0m-292-287h221v-221h-221z m0 0m292 0h708v-221h-708z m0 0m-292-287h221v-221h-221z m0 0m292 0h708v-221h-708z m0 0" horiz-adv-x="1000" />

<glyph glyph-name="award-badge" unicode="&#xe85c;" d="M490 833a172 172 0 0 0-10-20 75 75 0 0 0-23-6 85 85 0 0 1-22-5 116 116 0 0 1 16-16l16-15-4-22a137 137 0 0 1-3-23 130 130 0 0 1 20 10l20 10 20-11a196 196 0 0 1 20-9 157 157 0 0 1-3 22l-4 22 17 17 16 16-17 3c-31 4-28 2-39 24a139 139 0 0 1-11 20 120 120 0 0 1-9-17z m-153-37c-9-18-9-17-30-20a37 37 0 0 1-13-2 59 59 0 0 1 12-14l12-13-2-14c-4-23-5-22 13-13l16 8 16-8a43 43 0 0 1 16-7c0 1-1 9-3 19l-3 17 13 12c14 14 14 13-4 16-18 2-18 2-27 19a105 105 0 0 1-9 16 131 131 0 0 1-7-16z m311 0c-9-17-9-17-27-19-19-3-18-2-4-16l13-13-2-13c-2-7-3-15-4-18l-1-6 16 9 17 8 16-8c18-9 17-10 13 13l-3 14 13 13a55 55 0 0 1 12 13 87 87 0 0 1-17 4 149 149 0 0 0-17 3c-1 0-5 8-9 17l-8 16z m-475-80c-30-31-41-60-33-89l3-14-10-13a73 73 0 0 0-11-13c0 0 0 3 1 6a116 116 0 0 1-2 51 44 44 0 0 1-6 13 148 148 0 0 1-21-34 80 80 0 0 1-3-68l6-11-7-16-6-16-2 14a124 124 0 0 1-5 26c-5 13-14 28-16 25a163 163 0 0 1-15-41 76 76 0 0 1 16-64l7-7-4-18c-1-10-4-20-4-22-2-3-2-3-2 2a122 122 0 0 1-12 41c-5 10-20 28-22 25a117 117 0 0 1-6-40 70 70 0 0 1 28-62l10-6v-30c0-20-1-29-2-27a16 16 0 0 0-2 7 136 136 0 0 1-17 44 106 106 0 0 1-19 20c-10 8-12 8-13 5a121 121 0 0 1 9-64 75 75 0 0 1 33-31 49 49 0 0 0 10-4 51 51 0 0 0 3-18c1-9 2-21 3-27l1-10-5 10a105 105 0 0 1-44 52c-15 8-15 8-13-7 6-42 27-70 58-75l8-2 5-18c2-11 5-20 6-21s0-2-1-2a29 29 0 0 0-8 9 91 91 0 0 1-50 33c-10 2-10 1-4-17a125 125 0 0 1 22-38 77 77 0 0 1 42-21l11-1 7-16a70 70 0 0 0 7-17c-1-1-4 1-7 4a78 78 0 0 1-27 17 112 112 0 0 1-34 5c-2-1 5-14 15-29a67 67 0 0 1 60-34h15l10-15a108 108 0 0 0 10-15 56 56 0 0 0-10 5 90 90 0 0 1-47 11 63 63 0 0 1-14-2c-1-2 13-21 24-31a71 71 0 0 1 66-18l10 3 12-13c7-7 12-13 11-13a89 89 0 0 0-12 3 103 103 0 0 1-49 0l-11-3 11-11c31-27 63-36 89-22l9 4 15-10c8-5 14-10 15-10a79 79 0 0 0-15 0 95 95 0 0 1-49-9l-9-5 5-4a162 162 0 0 1 43-20 68 68 0 0 1 58 8l10 7 20-8 20-7-16-2a132 132 0 0 1-28-5c-13-5-34-18-32-21a132 132 0 0 1 39-13 76 76 0 0 1 72 19l10 9 22-3c12-2 25-3 29-3s7-1 8-2a197 197 0 0 1 23-19l23-17 15 11c9 6 20 14 25 19a24 24 0 0 0 18 8 302 302 0 0 1 30 3l22 3 5-6a77 77 0 0 1 63-24 161 161 0 0 1 46 13c6 3 6 3 3 6a108 108 0 0 1-62 23c-7 0-11 0-9 1s11 4 20 8l18 7 9-6a70 70 0 0 1 59-9 178 178 0 0 1 44 20l5 4-12 6a89 89 0 0 1-47 8c-8 0-14 0-13 1s8 5 15 10l13 9 11-5a53 53 0 0 1 26-5 53 53 0 0 1 30 7 105 105 0 0 1 39 30c0 7-40 11-58 5-6-2-11-3-11-3a118 118 0 0 0 12 13l12 13 9-3a63 63 0 0 1 57 11c11 8 36 35 34 38a80 80 0 0 1-14 2 88 88 0 0 1-48-11 72 72 0 0 0-9-5 125 125 0 0 0 9 15l10 15 14 0a68 68 0 0 1 58 30 91 91 0 0 1 17 33 80 80 0 0 1-38-7 119 119 0 0 1-20-13 48 48 0 0 0-11-8c0 1 4 9 8 18l8 17 11 2a68 68 0 0 1 52 34 150 150 0 0 1 16 37l2 6-9-2a96 96 0 0 1-54-37c-3-4-5-7-5-6a121 121 0 0 0 5 22l5 20 10 2c28 6 44 26 53 61q7 27 2 27a100 100 0 0 1-35-24 111 111 0 0 1-16-25 90 90 0 0 0-9-16c-1 0-1 4 0 10 2 11 4 29 4 36 0 5 2 7 13 11 28 12 41 38 41 78v20l-6-3a107 107 0 0 1-31-34 173 173 0 0 1-13-43 165 165 0 0 0-2 25c-1 27-1 30 3 33a74 74 0 0 1 35 61 120 120 0 0 1-7 47c-2 2-17-16-22-26a111 111 0 0 1-11-40c0-5-1-8-2-8s-2 2-2 6a178 178 0 0 1-3 22l-4 17 6 7a75 75 0 0 1 18 54c-4 22-13 53-17 53a109 109 0 0 1-17-35 92 92 0 0 1-3-21c0-6-1-11-1-10a110 110 0 0 0-8 16l-6 14 6 11c13 27 7 59-18 95l-6 9-3-8a104 104 0 0 1-6-49 72 72 0 0 0 1-14 169 169 0 0 0-11 14l-10 13 3 8a85 85 0 0 1 1 41 120 120 0 0 1-30 49c-11 11-15 15-16 13a123 123 0 0 1 1-46 137 137 0 0 1 9-24c3-7 6-12 6-13s-4 2-10 6a33 33 0 0 0-14 21 82 82 0 0 1-68 57c-10 2-10 1-4-16a90 90 0 0 1 23-36 105 105 0 0 1 38-18 50 50 0 0 0 20-11c12-9 14-13 2-6a81 81 0 0 1-41 9 62 62 0 0 1-28-11 140 140 0 0 1 34-23 85 85 0 0 1 61-9l11 3 13-17c24-32 30-48 11-28a65 65 0 0 1-67 23l-12-4 14-13c26-25 45-33 71-32l16 1 6-15a249 249 0 0 0 13-40 51 51 0 0 0-9 11 85 85 0 0 1-17 18 65 65 0 0 1-49 11l-4-2 6-9a98 98 0 0 1 66-48c7-1 13-3 14-3a352 352 0 0 0 7-42 35 35 0 0 0-7 9 58 58 0 0 1-28 24 52 52 0 0 1-29 4 99 99 0 0 1 17-36 86 86 0 0 1 39-31l12-4 1-19 0-19-4 8a70 70 0 0 1-30 28c-12 6-22 8-22 5a184 184 0 0 1 6-21 85 85 0 0 1 40-54c8-4 8-5 8-15a147 147 0 0 0-2-19l-1-9-4 11a68 68 0 0 1-12 20c-9 10-29 22-31 19a131 131 0 0 1 6-44 90 90 0 0 1 27-39c5-4 8-7 8-9s-3-10-5-20a122 122 0 0 0-6-20c-1-1-2 4-2 12a65 65 0 0 1-16 38c-7 7-19 16-21 15a130 130 0 0 1-1-45 91 91 0 0 1 20-44 64 64 0 0 0 8-10 324 324 0 0 0-22-45c-1 0-1 2 0 5a87 87 0 0 1 3 21 47 47 0 0 1-7 28 80 80 0 0 1-13 20l-8 7-2-6a131 131 0 0 1-6-49 73 73 0 0 1 10-33c10-21 11-17-11-46-13-18-19-23-12-11a91 91 0 0 1 10 36 79 79 0 0 1-3 19 72 72 0 0 1-17 29 169 169 0 0 1-16-43 97 97 0 0 1 5-51c4-11 4-14 2-17a424 424 0 0 0-43-37c0 0 2 4 6 8a65 65 0 0 1 17 45 74 74 0 0 1-11 39 116 116 0 0 1-25-40 87 87 0 0 1-5-50c3-14 3-14-1-17a515 515 0 0 0-46-28c-1 0 3 4 9 10a67 67 0 0 1 21 44c1 13-2 34-5 34a147 147 0 0 1-30-31 91 91 0 0 1-16-50c-1-18-1-19-7-21a333 333 0 0 0-45-16c0 1 4 4 8 7a68 68 0 0 1 31 54c1 19 0 21-12 14a160 160 0 0 1-41-39 130 130 0 0 1-15-39c-1-4-3-5-15-7-7-2-22-3-34-4l-21-2-11 7c-5 4-14 10-19 14l-9 7-19-14-18-14-14 1a321 321 0 0 0-52 8 121 121 0 0 0-5 14 92 92 0 0 1-26 46 130 130 0 0 1-37 27c-4 0-2-27 2-39a85 85 0 0 1 29-35c4-3 7-5 7-6a306 306 0 0 0-46 16c-6 2-6 3-6 13a109 109 0 0 1-31 75 92 92 0 0 1-15 14c-5 0-9-24-6-39a65 65 0 0 1 21-39c6-5 10-10 9-10a434 434 0 0 0-48 29c-2 2-2 4 0 13a107 107 0 0 1-19 82l-8 13-4-5a78 78 0 0 1-6-15 73 73 0 0 1 15-67c10-13 4-9-19 13l-22 20 6 15a108 108 0 0 1-8 86l-4 8-5-7a70 70 0 0 1-10-66 80 80 0 0 1 6-14c1-2 2-3 1-4a119 119 0 0 0-25 31l-10 15 6 8a85 85 0 0 1 14 50 108 108 0 0 1-8 46 81 81 0 0 1-23-27 75 75 0 0 1-3-45c2-6 2-10 2-10a143 143 0 0 0-13 23l-11 24 9 11a89 89 0 0 1 21 47 124 124 0 0 1-2 41 53 53 0 0 1-21-16 61 61 0 0 1-16-40 24 24 0 0 0-1-10 125 125 0 0 0-7 21l-6 21 12 11a94 94 0 0 1 30 66l1 16-7-4a59 59 0 0 1-38-39c-2-6-3-9-3-8s-1 5-1 7-2 10-2 17c-1 13-1 13 5 16a115 115 0 0 1 33 32 152 152 0 0 1 15 42c0 4-1 5-6 4a68 68 0 0 1-45-34c-1-3-3-5-3-5a68 68 0 0 0-1 18c1 13 2 18 3 18a96 96 0 0 1 17 7 96 96 0 0 1 43 45c9 19 9 21-7 18a59 59 0 0 1-45-30c-7-12-8-8-3 17l4 18 14 3a84 84 0 0 1 46 23c11 12 26 33 24 35a49 49 0 0 1-16 1 61 61 0 0 1-54-31 36 36 0 0 0-7-10 212 212 0 0 0 15 45l5 11h19a55 55 0 0 1 35 7c16 8 46 33 43 37a56 56 0 0 1-32 6 76 76 0 0 1-43-24c-10-9-13-11-11-7a251 251 0 0 0 28 43l7 8 9-2a87 87 0 0 1 62 7 178 178 0 0 1 35 24 33 33 0 0 1-10 6 58 58 0 0 1-26 5 46 46 0 0 1-30-7 95 95 0 0 0-14-7 148 148 0 0 0 11 10 48 48 0 0 0 23 12 81 81 0 0 1 63 66c1 6 1 6-6 4a80 80 0 0 1-69-56 38 38 0 0 0-14-21c-5-4-10-8-10-8a70 70 0 0 0 5 14 114 114 0 0 1 11 68c-1 5-2 5-14-7z m315-35c-12-9-84-62-129-95l-25-17v-144l-20-8a329 329 0 0 1-58-26 58 58 0 0 1 14 4 713 713 0 0 0 145 33 1216 1216 0 0 0 169 0 762 762 0 0 0 153-34 36 36 0 0 1 11-4 366 366 0 0 1-74 33l-6 1v144l-20 15c-12 8-38 28-59 43s-49 35-61 45-24 17-25 18a36 36 0 0 1-15-8z m89-68l73-53v-65c0-62 0-65-3-64a65 65 0 0 1-11 2 17 17 0 0 0-7 3c-1 1-1 27-1 57l0 56-23 17c-14 10-42 31-64 47l-40 30-63-47-63-47-1-57 0-57-10-2a41 41 0 0 0-11-2c0 0-1 29-1 64l0 65 33 24c86 64 116 85 117 84 2-1 35-25 75-54z m-29-43l48-35 0-46a315 315 0 0 0-1-46 35 35 0 0 0-10 0l-9 1v78l-36 26c-20 14-37 26-38 26a156 156 0 0 1-29-19c-15-10-31-23-36-26l-10-7v-78l-6-1a80 80 0 0 0-11-1h-5v46l0 45 48 36c26 19 48 35 48 35s21-15 47-34z m-12-29l32-23v-72l-16 1a901 901 0 0 1-101 0l-16-1v72l17 12c9 7 23 17 31 23a106 106 0 0 0 18 12 340 340 0 0 0 35-24z m-234-179c-1-2-27-82-27-83 0-1 3-2 7-2 7 0 8 1 10 8l4 8h31l2-7c1-7 2-8 9-8 4 0 7 1 7 2s-5 20-12 42l-13 39-9 1a22 22 0 0 1-9 0z m15-37c2-8 4-15 4-16s-4-1-10-1-10 1-10 2a164 164 0 0 0 10 31 110 110 0 0 0 6-16z m46 36c0-1 16-66 18-76 2-8 2-8 11-7l8 0 7 29a211 211 0 0 0 8 29 175 175 0 0 0 7-26c7-32 8-33 17-33 7 0 8 1 10 6 0 3 5 22 11 42l9 37h-17l-6-29c-3-16-6-29-6-31a100 100 0 0 0-8 29l-7 31h-9c-10 0-8 4-18-39a204 204 0 0 0-6-23c-1 1-13 59-13 61 0 0-4 1-8 1a22 22 0 0 1-8-1z m148-1c-2-2-26-78-26-80 0-2 3-3 8-2 6 0 7 1 9 7l3 8 15 0 15 1 3-9c3-7 4-8 10-8 4 0 8 1 8 2s-6 20-13 42l-14 41h-9a20 20 0 0 1-9-2z m10-52a37 37 0 0 0-11 0 93 93 0 0 0 5 18l5 17 5-17 6-17z m57 12l0-42h14l1 17c0 15 1 17 4 16a48 48 0 0 0 12-17c9-17 9-17 17-17 4 0 8 1 8 2s-4 8-9 17c-7 14-8 16-5 18a26 26 0 0 1 12 32c-4 13-11 16-35 16h-20z m37 25a16 16 0 0 0-1-18 16 16 0 0 0-12-3h-9v24h10a23 23 0 0 0 12-3z m43-25l0-42h16a53 53 0 0 1 36 9 43 43 0 0 1 14 34 41 41 0 0 1-16 34c-7 5-8 6-29 6l-22 1z m42 22a32 32 0 0 0 4-39 22 22 0 0 0-21-10h-9v55h10a19 19 0 0 0 16-6z m-302-104l-7-1v-84h14l0 29 1 28 17-28c17-28 17-28 25-29l7 0v84l-7 1c-4 0-8 0-8-2a252 252 0 0 1 0-28 146 146 0 0 0-1-25 237 237 0 0 0-15 25c-18 30-18 30-26 30z m140 0l-6-1-1-28-1-27-16 27-16 27-8 1-9 0 1-41 0-42h14l1 28 1 27 17-28 17-28 7 0 8 1 0 41a329 329 0 0 1-1 42 15 15 0 0 1-8 1z m82 0l-7-1v-84h14l1 29 0 28 17-28c17-28 18-28 25-29l8 0v84l-8 1c-4 0-7 0-8-2a252 252 0 0 1 0-28 146 146 0 0 0 0-25 238 238 0 0 0-16 25c-18 30-18 30-26 30z m102-3a50 50 0 0 1-15-13c-6-8-7-11-7-26s1-17 7-26a43 43 0 0 1 31-17 42 42 0 0 1 30 17 32 32 0 0 1 7 19l0 11-21 1-20 0v-14h13a42 42 0 0 0 13-1 31 31 0 0 0-10-15 30 30 0 0 0-24 1 28 28 0 0 0-10 24c0 16 8 27 22 27a20 20 0 0 0 13-5 20 20 0 0 1 15-5h8l-3 6a36 36 0 0 1-49 16z m-490-35c12-50 11-47 21-47 9 0 7-4 17 37a116 116 0 0 0 6 20c1 0 4-13 8-28l6-28h18l10 36c5 20 9 39 10 42 1 5 1 5-7 5-6 0-8-1-9-4 0-3-4-17-7-32-4-19-6-26-7-22 0 3-3 15-6 28-7 33-6 30-16 30h-8l-7-30a205 205 0 0 0-8-30 244 244 0 0 0-7 30l-6 30h-17z m119-5v-42h14v84h-14z m221 1l0-42h15l0 42 1 41h-17z m-246-87c-4-10-5-10-16-11l-12-2 9-8c8-8 9-11 5-26-1-3 0-3 9 1l10 5 10-5 10-5-1 5c0 3-1 8-2 11-1 4 1 7 7 14l9 8-12 2c-11 1-11 1-16 11a32 32 0 0 1-5 10 32 32 0 0 1-5-10z m84 0c-4-10-4-10-16-11l-12-2 9-8c9-8 9-11 5-26-1-3 0-3 9 1l10 5 10-5 11-5-2 5c0 3-1 8-2 11-1 4 1 7 8 14l8 8-12 2c-11 1-11 1-16 11a32 32 0 0 1-5 10 32 32 0 0 1-5-10z m84 0c-4-10-4-10-16-11l-12-2 9-8c9-8 9-11 5-26-1-3 0-3 9 1l10 5 10-5 11-5-2 5c0 3-1 8-2 11-1 4 1 7 8 14l8 8-11 2c-12 1-12 1-16 11a32 32 0 0 1-6 10 32 32 0 0 1-5-10z m84 0c-4-10-4-10-16-11l-11-2 8-8c9-8 9-11 5-26-1-3 0-3 9 1l11 5 10-5 10-5-1 5c-1 3-2 8-3 11 0 4 1 7 8 14l8 8-11 2c-12 1-12 1-16 11a32 32 0 0 1-5 10 32 32 0 0 1-6-10z m84 0c-4-10-4-10-16-11l-11-2 8-8c9-8 10-11 5-26-1-3 0-3 9 1l11 5 10-5 10-5-1 5c-1 3-2 8-2 11-1 4 0 7 7 14l8 8-11 2c-12 1-12 1-16 11a32 32 0 0 1-5 10 32 32 0 0 1-6-10z" horiz-adv-x="1000" />

<glyph glyph-name="grid-o" unicode="&#xe85d;" d="M0 850h271v-270h-271z m0 0m730 0h270v-270h-270z m0 0m-365 0h270v-270h-270z m0 0m-365-365h271v-270h-271z m0 0m730 0h270v-270h-270z m0 0m-365 0h270v-270h-270z m0 0m-365-364h271v-271h-271z m0 0m730 0h270v-271h-270z m0 0m-365 0h270v-271h-270z m0 0" horiz-adv-x="1000" />

<glyph glyph-name="fullscreen" unicode="&#xe85e;" d="M1000 819c0 17-14 31-31 31h-281c-18 0-31-14-31-32 0-17 13-30 31-30h250l-1-251c0-18 14-31 31-31 18 0 32 13 32 31l0 281c0 0 0 0 0 1 0 0 0 0 0 0z m-687 31h-281c0 0 0 0 0 0 0 0 0 0 0 0-18 0-31-14-31-31l-1-282c0-17 14-31 32-31 18 0 31 14 31 31l0 251h250c18 0 31 13 31 31 0 18-13 31-31 31z m-1-938h-249v251c0 17-14 31-32 31s-31-14-31-31v-281c0 0 0 0 0-1 0 0 0 0 0 0 0-17 14-31 31-31h281c18 0 31 14 31 32 0 17-13 30-31 30z m656 281c-17 0-30-13-30-31v-250h-250c-18 0-32-13-32-31s14-31 32-31h280c0 0 0 0 1 0 0 0 0 0 0 0 17 0 31 14 31 31v281c0 18-14 31-32 31z" horiz-adv-x="1000" />

<glyph glyph-name="cancel" unicode="&#xe85f;" d="M938 850h-875c-35 0-63-28-63-62v-876c0-34 28-62 63-62h875c34 0 62 28 62 62v876c0 34-28 62-62 62z m0-938h-875v876h875v-876z m-648 228c12-12 32-12 44 0l167 165 165-164c12-13 32-13 44 0s13 32 0 44l-164 165 163 162c13 13 13 32 0 45-12 12-32 12-44 0l-164-163-166 166c-12 13-32 13-44 0-13-12-13-32 0-44l165-166-166-165c-13-13-13-32 0-45z" horiz-adv-x="1000" />

<glyph glyph-name="checked" unicode="&#xe860;" d="M938 850h-875c-35 0-63-28-63-62v-876c0-34 28-62 63-62h875c34 0 62 28 62 62v876c0 34-28 62-62 62z m0-938h-875v876h875v-876z m-554 232c12-12 33-12 45 0l344 340c12 12 12 32 0 44-12 13-32 13-45 0l-321-318-134 131c-12 12-32 12-45 0-12-12-12-32 0-44l156-153z" horiz-adv-x="1000" />

<glyph glyph-name="condo" unicode="&#xe861;" d="M947-116h-52v88a103 103 0 0 1 65 164 86 86 0 0 1-19 83 68 68 0 0 1 6 28 69 69 0 1 1-138 0 68 68 0 0 1 6-28 86 86 0 0 1-20-83 103 103 0 0 1 66-164v-21l-25 17a17 17 0 0 1-19-29l44-29v-26h-138v863h51a17 17 0 0 1 18 17v69a17 17 0 0 1-18 17h-550a17 17 0 0 1-17-17v-69a17 17 0 0 1 17-17h51v-863h-120v36a103 103 0 0 1 65 164 86 86 0 0 1-19 83 68 68 0 0 1 6 28 69 69 0 1 1-138 0 68 68 0 0 1 6-28 86 86 0 0 1-20-83 103 103 0 0 1 65-163v-37h-103a17 17 0 0 1 0-34h930a17 17 0 0 1 0 34z m-138 190a69 69 0 0 0 18 47 17 17 0 0 1 4 19 51 51 0 0 0 16 62 17 17 0 0 1 3 24 34 34 0 0 0-7 21 35 35 0 1 0 69 0 34 34 0 0 0-7-21 17 17 0 0 1 3-24 51 51 0 0 0 17-62 17 17 0 0 1 3-19 69 69 0 0 0-33-113v49a17 17 0 1 1-35 0v-49a69 69 0 0 0-51 66z m-740-52a69 69 0 0 0 18 47 17 17 0 0 1 4 19 51 51 0 0 0 16 62 17 17 0 0 1 3 24 34 34 0 0 0-7 21 35 35 0 1 0 69 0 34 34 0 0 0-7-21 17 17 0 0 1 3-24 51 51 0 0 0 17-62 17 17 0 0 1 3-19 69 69 0 0 0-33-113v49a17 17 0 1 1-35 0v-49a69 69 0 0 0-51 66z m172 794h516v-35h-516z m224-932v104h69v-104z m103 0v121a17 17 0 0 1-17 17h-104a17 17 0 0 1-17-17v-121h-120v863h378v-863z m423 1h-10c-5 0-9-8-9-18s4-17 9-17h10c5 0 9 8 9 17s-4 18-9 18z m-526 483h-104a17 17 0 0 1-17-17v-105a17 17 0 0 1 17-17h104a17 17 0 0 1 18 17v105a17 17 0 0 1-18 17z m-17-104h-70v69h70z m189 104h-104a17 17 0 0 1-18-17v-105a17 17 0 0 1 18-17h104a17 17 0 0 1 18 17v105a17 17 0 0 1-18 17z m-17-104h-70v69h70z m-155 276h-104a17 17 0 0 1-17-17v-105a17 17 0 0 1 17-17h104a17 17 0 0 1 18 17v105a17 17 0 0 1-18 17z m-17-104h-70v69h70z m189 104h-104a17 17 0 0 1-18-17v-105a17 17 0 0 1 18-17h104a17 17 0 0 1 18 17v105a17 17 0 0 1-18 17z m-17-104h-70v69h70z m-155-240h-104a17 17 0 0 1-17-18v-104a17 17 0 0 1 17-17h104a17 17 0 0 1 18 17v104a17 17 0 0 1-18 18z m-17-105h-70v70h70z m189 105h-104a17 17 0 0 1-18-18v-104a17 17 0 0 1 18-17h104a17 17 0 0 1 18 17v104a17 17 0 0 1-18 18z m-17-105h-70v70h70z m-155 620h-104a17 17 0 0 1-17-18v-104a17 17 0 0 1 17-17h104a17 17 0 0 1 18 17v104a17 17 0 0 1-18 18z m-17-105h-70v70h70z m189 105h-104a17 17 0 0 1-18-18v-104a17 17 0 0 1 18-17h104a17 17 0 0 1 18 17v104a17 17 0 0 1-18 18z m-17-105h-70v70h70z m256-515a17 17 0 0 1 18 18v17a17 17 0 0 1-35 0v-17a17 17 0 0 1 17-18z m-139 533a70 70 0 0 1 70-70h121a16 16 0 0 1 9 3 61 61 0 0 1-11 119 69 69 0 0 1-128 17 70 70 0 0 1-61-69z m69 35l3-1a17 17 0 0 1 17 12 35 35 0 0 0 68-11 5 5 0 0 0-1-1 17 17 0 0 1 21-17 27 27 0 0 0 32-26 26 26 0 0 0-21-25 19 19 0 0 1-2-1h-116a35 35 0 1 0-1 70z m-719-293h122a16 16 0 0 1 9 3 61 61 0 0 1-11 119 69 69 0 0 1-128 17 70 70 0 0 1 8-139z m0 105l2-1a17 17 0 0 1 18 12 35 35 0 0 0 67-11 5 5 0 0 0 0-1 17 17 0 0 1 21-17 27 27 0 0 0 31-26 26 26 0 0 0-20-25 19 19 0 0 1-2-1h-117a35 35 0 0 0 0 70z" horiz-adv-x="1000" />

<glyph glyph-name="list-view-o" unicode="&#xe862;" d="M0 850h250v-250h-250z m375 0h625v-250h-625z m-375-375h250v-250h-250z m375 0h625v-250h-625z m-375-375h250v-250h-250z m375 0h625v-250h-625z" horiz-adv-x="1000" />

<glyph glyph-name="grid-view-o" unicode="&#xe863;" d="M0 850h250v-250h-250z m375 0h250v-250h-250z m375 0h250v-250h-250z m-750-375h250v-250h-250z m375 0h250v-250h-250z m375 0h250v-250h-250z m-750-375h250v-250h-250z m375 0h250v-250h-250z m375 0h250v-250h-250z" horiz-adv-x="1000" />

<glyph glyph-name="tick-t" unicode="&#xe864;" d="M1263 850l-684-684-421 421-158-158 579-579 842 842z" horiz-adv-x="1421" />

<glyph glyph-name="cross-t" unicode="&#xe865;" d="M1000-25l-375 375 375 375-125 125-375-375-375 375-125-125 375-375-375-375 125-125 375 375 375-375z" horiz-adv-x="1000" />

<glyph glyph-name="settings" unicode="&#xe866;" d="M949 455l-70 12c-8 24-17 46-29 68l42 58c17 25 15 58-7 79l-62 63c-12 11-27 18-44 18-13 0-25-4-35-12l-59-41c-22 12-46 22-70 29l-12 69c-5 30-31 52-61 52h-88c-30 0-56-22-61-52l-12-71c-23-7-46-16-68-28l-57 41c-11 8-23 12-36 12-17 0-32-7-44-19l-62-62c-22-21-25-55-7-79l42-59c-12-22-21-45-28-68l-69-12c-30-5-52-31-52-61v-88c0-30 22-56 52-61l71-12c7-24 17-46 28-68l-41-57c-17-25-15-59 7-80l62-62c12-12 27-18 44-18 13 0 25 4 35 11l59 42c21-11 43-20 66-27l12-70c5-30 31-52 61-52h88c30 0 56 22 61 52l12 70c24 7 46 16 68 28l58-41c10-8 23-12 36-12l0 0c16 0 32 7 43 18l63 63c21 21 24 55 6 79l-41 58c12 22 21 45 28 68l70 12c30 5 52 31 52 61v88c0 30-21 56-51 61z m-5-149c0-3-2-5-5-5l-87-15c-11-2-20-10-23-21-8-30-20-60-36-87-6-10-5-22 1-31l52-73c1-2 1-5-1-7l-62-62c-2-1-3-2-4-2-1 0-2 1-3 1l-73 52c-9 7-21 7-31 1-27-16-56-28-87-36-11-3-19-12-21-23l-15-87c0-3-2-5-5-5h-88c-3 0-5 2-5 5l-15 87c-2 11-10 20-21 23-30 8-58 20-85 35-5 3-10 4-15 4-5 0-11-2-16-5l-73-52c-1-1-2-1-3-1-1 0-3 0-4 1l-62 62c-2 2-2 5-1 8l51 72c7 9 7 21 2 31-17 27-29 56-37 87-3 10-12 19-23 21l-88 15c-3 0-5 2-5 5v88c0 3 2 5 5 5l87 15c11 2 20 10 23 21 8 31 20 60 36 88 5 9 5 21-2 30l-52 73c-1 2-1 5 1 7l62 63c2 1 3 1 4 1 1 0 2 0 3-1l72-51c9-7 22-7 31-1 27 16 57 28 87 36 11 3 19 12 21 23l15 88c1 3 3 5 6 5h88c2 0 5-2 5-5l15-87c1-11 10-20 21-23 31-8 61-20 89-36 10-6 22-6 31 1l72 52c1 0 2 1 3 1 1 0 3 0 4-2l62-62c2-2 2-5 1-7l-52-73c-6-9-7-21-1-31 16-27 28-56 36-87 3-11 12-19 23-21l88-15c2 0 4-2 4-5v-88h0z m-444 260c-119 0-216-97-216-216s97-216 216-216 216 97 216 216-97 216-216 216z m0-375c-88 0-159 71-159 159s71 160 159 160 160-72 160-160-72-159-160-159z" horiz-adv-x="1000" />

<glyph glyph-name="clock" unicode="&#xe867;" d="M500 850c-276 0-500-224-500-500s224-500 500-500 500 224 500 500-224 500-500 500z m0-967c-257 0-467 210-467 467s210 467 467 467 467-210 467-467-210-467-467-467z m17 533v169c0 10-8 17-17 17s-17-7-17-17v-169c-23-6-41-24-47-47h-119c-9 0-17-8-17-17s8-17 17-17h119c7-28 33-50 64-50 37 0 67 30 67 67 0 31-22 57-50 64z m-17-97c-18 0-33 15-33 33s15 33 33 33 33-15 33-33-15-33-33-33z m0 366c9 0 17 8 17 17v17c0 9-8 16-17 16s-17-7-17-16v-17c0-9 8-17 17-17z m0-666c-9 0-17-8-17-17v-17c0-9 8-16 17-16s17 7 17 16v17c0 9-8 17-17 17z m367 350h-17c-9 0-17-8-17-17s8-17 17-17h17c9 0 16 8 16 17s-7 17-16 17z m-717 0h-17c-9 0-16-8-16-17s7-17 16-17h17c9 0 17 8 17 17s-8 17-17 17z m598 254l-12-12c-7-6-7-17 0-23 3-3 7-5 12-5s8 2 11 5l12 12c7 6 7 17 0 23s-17 7-23 0z m-507-507l-12-11c-7-7-7-17 0-24 3-3 8-5 12-5s8 2 12 5l11 12c7 6 7 17 0 23s-17 7-23 0z m518 0c-6 7-17 7-23 0s-7-17 0-23l12-12c3-3 7-5 11-5s9 2 12 5c7 7 7 17 0 24l-12 11z m-506 507c-7 7-17 7-24 0s-7-17 0-23l12-12c3-3 7-5 12-5s8 2 11 5c7 6 7 17 0 23l-11 12z" horiz-adv-x="1000" />

<glyph glyph-name="clock-o" unicode="&#xe868;" d="M500 850c-276 0-500-224-500-500s224-500 500-500 500 224 500 500c0 276-224 500-500 500z m22-956v88c0 12-10 21-22 21s-21-9-21-21v-88c-236 11-424 199-435 435h88c12 0 21 9 21 21s-9 22-21 22h-88c11 235 199 423 435 434v-88c0-12 9-21 21-21s22 9 22 21v88c235-11 423-199 434-434h-88c-12 0-21-10-21-22s9-21 21-21h0 88c-11-236-199-424-434-435z m204 257l-204 208v216c0 12-10 22-22 22s-21-10-21-22v-225c0-6 2-11 6-15l211-214c8-9 22-9 30-1 8 9 9 22 0 31z" horiz-adv-x="1000" />

<glyph glyph-name="cog" unicode="&#xe869;" d="M560-150h-120c-25 0-45 18-47 42l-12 74c-24 8-46 17-68 28l-62-44c-7-6-18-10-29-10-12 0-24 5-33 14l-85 85c-17 17-19 44-3 63l43 61c-11 22-20 44-28 68l-75 12c-23 2-41 22-41 47v120c0 25 18 45 42 47l74 12c8 24 17 46 28 68l-44 62c-15 18-13 45 4 62l85 85c17 17 45 18 63 4l61-44c22 11 44 20 68 28l12 75c2 23 22 41 47 41h120c25 0 45-18 47-42l12-74c24-8 46-17 68-28l62 44c8 6 18 10 29 10 12 0 24-5 33-14l85-85c17-17 19-44 4-63l-44-61c11-22 20-44 28-68l75-12c23-2 41-22 41-47v-120c0-25-18-45-42-47l-74-12c-8-24-17-46-28-68l44-62c15-18 13-45-4-62l-85-85c-17-17-45-18-63-3l-61 43c-22-11-44-20-68-28l-12-75c-2-23-22-41-47-41z m-248 180c3 0 6 0 8-2 25-14 52-25 80-33 6-2 11-7 12-13l14-86c1-8 7-13 14-13h120c7 0 13 5 14 12l15 87c1 6 5 11 11 13 28 8 55 19 80 33 6 3 12 3 18-1l70-50c7-6 15-5 19 0l86 86c5 5 5 12 1 18l-51 71c-4 6-4 12-1 18 14 25 25 52 33 80 2 6 7 11 13 12l86 14c8 1 13 7 13 14v120c0 7-5 13-12 14l-87 14c-6 2-11 6-13 12-8 28-19 55-33 80-3 6-3 12 1 18l50 70c5 7 5 14 0 19l-86 86c-4 5-13 5-18 1l-71-51c-6-4-12-4-18-1-25 14-52 25-80 33-6 2-10 7-11 13l-15 86c-1 8-6 13-14 13h-120c-7 0-13-5-14-12l-14-87c-1-6-6-11-12-13-28-8-55-19-80-33-5-3-12-3-18 1l-70 50c-7 6-15 5-19 0l-86-85c-5-5-5-13-1-19l51-71c4-6 4-12 1-18-14-25-25-52-33-80-2-6-7-10-13-11l-86-15c-8-1-13-6-13-14v-120c0-7 5-13 12-14l87-14c6-1 11-6 13-12 8-28 19-55 33-80 3-5 3-12-1-18l-50-70c-5-6-5-14 0-19l86-86c4-5 13-5 18-1l71 51c3 2 7 3 10 3z m188 122c-109 0-198 89-198 198 0 109 89 198 198 198 109 0 198-89 198-198 0-109-89-198-198-198z m0 363c-91 0-165-74-165-165 0-91 74-165 165-165 91 0 165 74 165 165 0 91-74 165-165 165z" horiz-adv-x="1000" />

<glyph glyph-name="contract" unicode="&#xe86a;" d="M524 847a28 28 0 0 1-10 3h-482a31 31 0 0 1-32-32v-953a14 14 0 0 1 15-15h771a14 14 0 0 1 15 15v711a17 17 0 0 1-4 12z m5-47l219-208h-219z m242-920h-741l2 940h466v-244a14 14 0 0 1 15-15h258z m-541 697a74 74 0 1 1-74 74 74 74 0 0 1 74-74z m0 117a44 44 0 1 0-44-44 45 45 0 0 0 44 44z m-57-191a14 14 0 0 1-15-15v-184a15 15 0 0 1 10-15h5a16 16 0 0 1 13 8l44 77 44-77a15 15 0 0 1 17-8 15 15 0 0 1 11 15v184a15 15 0 0 1-31 0v-127l-28 51a16 16 0 0 1-28 0l-29-51v125a13 13 0 0 1-13 17z m-55 50a14 14 0 0 1 16-15h22l9-22a14 14 0 0 1 20-7l21 9 16-15a16 16 0 0 1 10-5 14 14 0 0 1 11 5l16 15 22-9a15 15 0 0 1 19 7l8 20h21a14 14 0 0 1 15 15v23l22 9a18 18 0 0 1 7 8 17 17 0 0 1 0 12l-9 21 15 15a15 15 0 0 1 0 21l-16 16 9 21a17 17 0 0 1 0 12 18 18 0 0 1-8 7l-20 8v23a14 14 0 0 1-15 15h-23l-9 21a14 14 0 0 1-19 8l-20-8-15 15a15 15 0 0 1-22 0l-15-15-21 9a15 15 0 0 1-20-7l-7-20h-24a14 14 0 0 1-16-15v-23l-21-11a18 18 0 0 1-7-7 17 17 0 0 1 0-12l9-21-16-16a15 15 0 0 1 0-21l17-15-9-21a17 17 0 0 1 0-12 18 18 0 0 1 8-8l19-7v-23z m-4 97l12 12a14 14 0 0 1 3 17l-6 15 15 6a15 15 0 0 1 9 13v19h17a13 13 0 0 1 13 9l7 15 16-6a14 14 0 0 1 17 3l12 12 14-11a14 14 0 0 1 16-3l15 6 7-15a15 15 0 0 1 13-9h17v-17a13 13 0 0 1 9-13l15-6-6-17a14 14 0 0 1 3-17l12-12-9-13a14 14 0 0 1-3-17l6-15-15-6a15 15 0 0 1-9-14v-17h-17a13 13 0 0 1-13-9l-7-15-16 6a14 14 0 0 1-17-3l-12-12-12 12a14 14 0 0 1-11 5 9 9 0 0 1-6-2l-15-6-6 15a15 15 0 0 1-14 9h-16v17a13 13 0 0 1-9 14l-16 6 6 16a14 14 0 0 1-3 17z m804 43a79 79 0 0 1-80-77c0-193-2-349-2-554l2-4 63-193a14 14 0 0 1 28 0l66 193 2 4c2 141 3 411 3 552a81 81 0 0 1-82 79z m-1-776l-46 130 90-1z m51 161h-103l3 445 102-1z m2 474l-102 2v62a49 49 0 0 0 50 47 51 51 0 0 0 52-49z m-599-137a14 14 0 0 1 15-15h294a15 15 0 1 1 0 30h-294a14 14 0 0 1-15-15z m309-126a14 14 0 0 1 16 16 16 16 0 0 1-17 15h-293a15 15 0 0 1 0-31z m3-81h-563a15 15 0 1 1 0-31h563a15 15 0 0 1 0 31z m0-111h-563a15 15 0 0 1 0-30h563a15 15 0 0 1 0 30z m0-112h-563a15 15 0 0 1 0-30h563a15 15 0 0 1 0 30z" horiz-adv-x="1000" />

<glyph glyph-name="draft" unicode="&#xe86b;" d="M106 779h36v-35h-36z m71 0h36v-35h-36z m71 0h36v-35h-36z m89-177h-213a18 18 0 0 1-18-18v-177a18 18 0 0 1 18-18h213a18 18 0 0 1 18 18v177a18 18 0 0 1-18 18z m-18-177h-177v141h177z m106 177h71v-36h-71z m107 0h283v-36h-283z m-107-71h284v-35h-284z m0-71h178v-35h-178z m-319-142h249v-35h-249z m0-71h249v-35h-249z m0-70h249v-36h-249z m0-71h249v-36h-249z m456-178h-509a53 53 0 0 0-53 53v816a53 53 0 0 0 53 53h816a53 53 0 0 0 53-53v-509c-4 4-8 8-12 12a259 259 0 0 1-23 21c0 294-1 351-1 351h-851v-691a18 18 0 0 1 18-17h475a259 259 0 0 1 22-24c4-4 8-8 12-12z m-509 887a18 18 0 0 1-17-18v-89h850v89a18 18 0 0 1-17 18z m677-950c-34 0-68 7-99 20-31 13-58 31-81 55-24 23-42 50-55 81-13 31-20 65-20 99 0 34 7 68 20 99 13 31 31 58 55 81 23 24 50 42 81 55 31 13 65 20 99 20 34 0 68-7 99-20 31-13 58-31 81-55 24-23 42-50 55-81 13-31 20-65 20-99 0-34-7-68-20-99-13-31-31-58-55-81-23-24-50-42-81-55-31-13-65-20-99-20z m0 495c-32 0-64-6-93-19-29-12-55-29-77-51-22-22-39-48-51-77-13-29-19-61-19-93 0-32 6-64 19-93 12-29 29-55 51-77 22-22 48-39 77-51 29-13 61-19 93-19 32 0 64 6 93 19 29 12 55 29 77 51 22 22 39 48 51 77 13 29 19 61 19 93 0 32-6 64-19 93-12 29-29 55-51 77-22 22-48 39-77 51-29 13-61 19-93 19m0 30c149 0 270-121 270-270 0-149-121-270-270-270-149 0-270 121-270 270 0 149 121 270 270 270z m84-264l66 66a28 28 0 0 1 0 40l-42 43a29 29 0 0 1-40 0l-66-67-73 73a7 7 0 0 1-10 0l-71-71a7 7 0 0 1 0-10l73-73-45-45a7 7 0 0 1-1-3l-29-100a7 7 0 0 1 7-9 7 7 0 0 1 2 0l100 29a7 7 0 0 1 3 1l45 45 73-73a7 7 0 0 1 10 0l71 71a7 7 0 0 1 0 10z m-6 138a15 15 0 0 0 20 0l42-42a14 14 0 0 0 0-20l-31-31-62 62z m-158-116l23 23a7 7 0 1 1-10 10l-23-23-19 18 24 24a7 7 0 1 1-10 10l-24-24-18 19 61 61 68-68-61-61z m117 75l26-26-137-137-10 20a7 7 0 0 1-6 4h-12z m-174-236l10 33 23-23z m82 24l-34-10-34 34 10 34h18l13-24a7 7 0 0 1 3-3l24-12v-19z m15 12v11a7 7 0 0 1-4 6l-20 10 137 137 26-26z m121-36l-19 19 24 23a7 7 0 0 1-10 10l-24-23-18 18 23 23a7 7 0 0 1-10 10l-23-23-11 11 61 61 68-68z" horiz-adv-x="1000" />

<glyph glyph-name="published" unicode="&#xe86c;" d="M107 779h35v-35h-35z m71 0h35v-35h-35z m70 0h36v-35h-36z m89-177h-213a18 18 0 0 1-17-18v-178a18 18 0 0 1 17-17h213a18 18 0 0 1 18 17v178a18 18 0 0 1-18 18z m-18-178h-177v142h177z m107 178h71v-36h-71z m106 0h284v-36h-284z m-106-71h283v-36h-283z m0-71h177v-36h-177z m-319-142h248v-36h-248z m0-71h248v-36h-248z m0-71h248v-36h-248z m0-71h248v-36h-248z m456-178h-510a53 53 0 0 0-53 53v817a53 53 0 0 0 53 53h817a53 53 0 0 0 53-53v-510c-4 5-8 9-13 13a259 259 0 0 1-22 20c0 296-1 352-1 352h-851v-692a18 18 0 0 1 17-17h476a260 260 0 0 1 21-23c4-5 8-9 13-13z m-510 888a18 18 0 0 1-17-18v-89h851v89a18 18 0 0 1-17 18z m677-950c-34 0-68 7-99 20-31 13-58 31-81 55-24 23-42 50-55 81-13 31-20 65-20 99 0 34 7 68 20 99 13 31 31 58 55 81 23 24 50 42 81 55 31 13 65 20 99 20 34 0 68-7 99-20 31-13 58-31 81-55 24-23 42-50 55-81 13-31 20-65 20-99 0-34-7-68-20-99-13-31-31-58-55-81-23-24-50-42-81-55-31-13-65-20-99-20z m0 495c-32 0-64-6-93-19-29-12-55-29-77-51-22-22-39-48-51-77-13-29-19-61-19-93 0-32 6-64 19-93 12-29 29-55 51-77 22-22 48-39 77-51 29-13 61-19 93-19 32 0 64 6 93 19 29 12 55 29 77 51 22 22 39 48 51 77 13 29 19 61 19 93 0 32-6 64-19 93-12 29-29 55-51 77-22 22-48 39-77 51-29 13-61 19-93 19m0 30c149 0 270-121 270-270 0-149-121-270-270-270-149 0-270 121-270 270 0 149 121 270 270 270z m155-154a13 13 0 0 1-17 0l-152-151-55 59a13 13 0 0 1-19-17l64-69a13 13 0 0 1 9-4h0a13 13 0 0 1 9 4l161 160a13 13 0 0 1 0 18z m-3-109a13 13 0 0 1-12-13 143 143 0 1 0-143 143 13 13 0 1 1 0 25 168 168 0 1 1 168-168 13 13 0 0 1-13 13z" horiz-adv-x="1000" />

</font>
</defs>
</svg>
